<svg xmlns="http://www.w3.org/2000/svg" viewBox="0 0 8011.04 7999.58"><defs><style>.cls-1{fill:#c0ae66;}</style></defs><title>資產 1</title><g id="圖層_2" data-name="圖層 2"><g id="圖層_1-2" data-name="圖層 1"><path class="cls-1" d="M903,5340,662.44,5742.52l352.49-168.3,55,115.23L496,5963.9,446.76,5861l239.55-402.29L334.79,5626.81l-55.13-115.36,574-274.45Z"/><path class="cls-1" d="M721,4790.36l-97.67,68.1,64.22,223.93,119.11,7.14,36.84,128.32-677.34-54.76-27.75-96.34,545.75-404.83Zm-389.2,270L577,5076.57,532.18,4920Z"/><path class="cls-1" d="M141.53,4518.58l519.82-76.34,18.54,126.38L160.19,4645l25,169.4L75.61,4830.59,7,4365.18l109.66-16.12Z"/><path class="cls-1" d="M641.11,4221.83l-635.9,26.9L0,4120.77l635.9-27Z"/><path class="cls-1" d="M593,3592.23c41.2,48.95,62,106.63,56.59,181s-34.42,129.41-82.28,172.06c-68.94,61.55-148.07,53.92-257.61,46s-189-11.75-248.28-82.39c-41.32-49.2-62-107.84-56.58-182S39.14,3598.53,87,3555.63c68.83-61.31,148.19-54.64,257.73-46.89S533.64,3521.46,593,3592.23ZM155,3655.6c-21.81,17-37.2,44.47-39.75,79.25s8.61,65.06,27.75,84.94c25,26.9,53.8,35.26,175.94,44.1s152,4.36,180.42-18.42c21.82-17,37.33-45.31,39.75-80.21s-8.6-64.22-27.87-83.85c-24.84-26.9-53.68-36.35-175.82-45.08S183.45,3632.7,155,3655.6Z"/><path class="cls-1" d="M763.5,3086.46,322.8,3246l379.51,92.21L672,3462.58,53.56,3312.2,80.7,3201.45l439.85-159.82-378.78-92.09,30.29-124.08,618.46,150.13Z"/><path class="cls-1" d="M967.43,2548l-118.51-8.48-91.36,214,88.09,80.34L793.3,2956.44,301.47,2488.6l39.26-92.21,679,29ZM495,2512.84l180.43,166.73,63.85-149.77Z"/><path class="cls-1" d="M1037,2407.78,495.59,2074.44l67-108.93,447,275.3,155.95-253.13,94.27,58.17Z"/><path class="cls-1" d="M1546.38,1718c-49,52.59-107.36,78.52-171.33,81.67-92.34,4.84-149-50.65-229.74-125.53-80.22-74.77-139.59-127.48-141.53-219.81-1.33-64,20.36-124.08,69.31-176.67,83.36-89.42,198.35-113.29,311.41-39.5l-88.46,95c-46-25.2-97.42-27.87-141.28,19.39-23.75,25.44-34,55-31.51,82.39,2.67,36.36,19.87,62.53,109.3,145.65,89.67,83.37,116.81,98.63,153.4,98.76,27.63.6,56.22-11.88,80-37.45,43.87-47.13,37.81-98.14,9.21-142.13l88.46-95C1645.26,1512.21,1629,1629,1546.38,1718Z"/><path class="cls-1" d="M2020.76,1288.53l-163.94-210.11-175,136.44L1845.67,1425l-100.81,78.64-391.5-502L1454.17,923l160.07,205.14,175-136.44L1629,786.64l101.06-78.76,391.5,501.89Z"/><path class="cls-1" d="M2405.48,1054.06c-118.14,64.1-254.21,37.45-318.44-81.3L1887.6,605.13l112.32-60.83,197.39,363.51c34.9,64.46,94.76,81.91,155.34,49s79.25-92.93,44.35-157.52L2199.73,435.49l111.48-60.59,199.45,367.63C2575.12,861.28,2523.5,990,2405.48,1054.06Z"/><path class="cls-1" d="M3053,777.67,2682,491,2807.53,861l-120.93,41.2L2482.06,299.29l108.09-36.71L2960.69,548.3,2835.64,179.09l120.8-41.2,204.42,603Z"/><path class="cls-1" d="M3640.45,590.83c-43.38,60.34-102,89.54-171.09,100.57-70.64,11.39-132.8-4-185.15-40.83-75.61-53-86.51-132-104-240.41s-32-186.72,23-260.88c38.29-51.13,90.64-85.06,163.22-96.69,149.76-24,241.37,59.13,275.66,162.25l-127,20.47c-24.11-56.95-66.52-83.6-131.1-73.18-34.42,5.45-60.35,23.26-75.37,46.28-20.12,30.54-21.81,60.59-2.3,181.52s30.65,149.89,59.49,172.3c21.33,17.45,51.5,25.45,86,19.75,38.05-6.18,66.89-24.11,84.09-49.56,17.21-26.41,20.85-56,15.51-88.57l-3.87-23.75L3428.89,439l-16.48-102.15,244-39.25,14.78,91.72C3686,480.32,3678.26,537.51,3640.45,590.83Z"/><path class="cls-1" d="M4299.62,654.32l14.66-265.73-221.37-12.23-14.55,266-127.71-6.91L3985.91,0,4113.5,7,4099.09,266.7l221.25,12.11,14.3-259.67,127.59,7-34.89,635.42Z"/><path class="cls-1" d="M4696.7,720.24c-97.3-20.6-166.61-56.71-216.29-132.08l97.78-61.31c32.11,48,84.1,72.95,143.59,85.67,73.67,15.75,119.11-2.91,129.9-52.59,4.6-21.93,2.18-41.56-8.73-56.71-10.18-14.05-23.26-23.26-51.86-33.8L4716,442.27c-53.2-19.63-90.16-44.83-113.18-78.27-24.11-36.11-30.78-79.49-19.63-131.84,24-111,125.05-170.61,263.67-140.92C4935,110,4994.42,144.68,5038.16,208.17l-95.36,58.89c-32.48-46.29-80-61.8-122.39-71-66.4-14.17-106.5,14.79-115.83,57.44-3.16,15.75-1.46,33.44,9.45,48.71,10.17,13.93,28.71,28,54,37.08l73.43,26.66c56.71,20.35,90.15,44,112,74.15,27.38,38.78,33,87.49,21.2,142.5C4948.73,703,4830.71,749.08,4696.7,720.24Z"/><path class="cls-1" d="M5001,792.58l199-603.8,121.41,39.75-199,604Z"/><path class="cls-1" d="M5567.07,1021.47l-69.07-463L5332.24,911.69,5216.4,857.4l270-575.31,103.24,48.46L5659.4,792.7l165.28-352.37,115.84,54.29-270.09,575.2Z"/><path class="cls-1" d="M6117.91,1292.77c-72.94,13.45-135.71-5.94-193.15-45.68-58.88-41-93.05-95-105.41-157.77-17.94-90.39,28.83-154.61,91.6-244.88,62.53-90.27,106.39-156.43,197.51-171.58,63.25-10.54,124.32,1.46,184.91,43.26,124.92,86.52,133.41,209.38,86.63,307.53l-105.9-73.43c22-57.43,9.81-105.9-43.86-143.22-28.72-19.87-59.74-25-86.64-18.66-35.75,7.87-57.92,28.47-127.47,128.92-69.8,100.45-81.91,129-76.7,165.16,3.39,27.26,19.75,53.8,48.46,73.67,31.87,22.05,65.07,28.72,95.24,22.54,30.66-7.15,53.8-25.81,72.59-53l13.81-19.88-99.12-68.34,59.13-85.3,203.33,140.92-52.83,76.1C6227.45,1244.91,6182.25,1280.77,6117.91,1292.77Z"/><path class="cls-1" d="M6464.7,1713.84c-91.85-98.27-100.09-236.77-1.57-328.86l305.59-286,87.36,93.54-302.2,282.81c-53.55,50.05-55.37,112.21-8.24,162.86,47.14,50.28,109.91,53.31,163.34,3.39l302.44-282.81,86.64,92.82-305.47,285.72C6694.08,1829.68,6556.31,1812,6464.7,1713.84Z"/><path class="cls-1" d="M6896.07,2273.41l187.21-429.8-328,211.93-69.55-107.48,534.6-345.21,61.92,95.84L7095.76,2128l327.4-211.32L7492.59,2024l-534.48,345.21Z"/><path class="cls-1" d="M7000,2460,7569.9,2177.2,7627,2291.58l-569.86,282.81Z"/><path class="cls-1" d="M7186.39,2888.23l-33.32-89.91,521.16-424,46.16,124.2L7377.6,2766.09l434.52-20.6,46.53,125Z"/><path class="cls-1" d="M7263.46,3113.12l621.85-132.68,90.15,421.67-108.33,23.14-63.49-296.86-145.77,31.26,53.92,252.52-108.2,23.26-54.17-252.76-151.1,32.23,63.5,296.87-108.21,23Z"/><path class="cls-1" d="M7380.75,3947.5l246.22-142-5.09-91.85-253.12,14.3-7.15-127.71,634.93-35.87,14.06,256.15c7.27,133.29-76.58,217.38-182.73,223.44-89.18,5.09-147.34-47.86-173.27-110L7389,4095.33Zm518.86-128.8-6.67-120.33-167.58,9.45,6.67,120.33c3,56.1,39.74,90.75,88.81,88.09S7902.63,3874.8,7899.61,3818.7Z"/><path class="cls-1" d="M7360.15,4322.89c9.45-98.88,37.08-172.06,106.39-230l72.22,90c-44.11,37.44-62.77,92-68.58,152.31-7.27,75.24,16.48,118.26,67.12,123.11,22.3,2.06,41.45-2.55,55.26-15,12.84-11.75,20.48-25.81,27.87-55.62L7638.6,4310c13.33-55.25,34.17-94.75,64.71-121.41,33.2-28.35,75.61-40,128.92-34.9,112.94,11,183.7,104.69,170.25,245.86-8.6,89.66-36.23,152.67-94.15,203.44l-69.55-88c42.17-37.56,52.34-86.51,56.46-129.41,6.43-67.85-26.78-104.45-70.52-108.57-15.75-1.69-33.2,2.19-47,14.79-12.85,11.87-24.6,31.74-30.78,58.16L7729,4425.88c-13.94,58.89-33.45,94.76-61.07,120-35.26,31.75-83,42.77-139.11,37.32C7406.08,4571.29,7346.82,4459.33,7360.15,4322.89Z"/><path class="cls-1" d="M7323,4630.78l622.94,127.84-25.81,125.29-622.69-127.84Z"/><path class="cls-1" d="M7704.52,5249.36l-500.8-157.28L7242,4969.94l500.92,157.52,51.26-163.22,105.66,33.33-140.8,448.33-105.66-33.2Z"/><path class="cls-1" d="M7258.25,5639.29l-235.68-112.21,54.77-114.63,235.44,112.21,423.73-16.24L7676.77,5634H7392.51l179.69,219.2-59.86,125.41Z"/><path class="cls-1" d="M4475.11,6990.3l93.25-334.48,219.51,269.05,57.8-342.38,246.42,244.63,21.69-346.59,270.66,217.59-14.65-346.94,291.89,188.06-50.85-343.55,310,156.56-86.5-336.35L6159,6139.16l-121.16-325.42,335.75,88.69-154.51-311,343.17,53.06-186.15-293.13,346.82,16.93-215.76-272.06,346.71-19.44-243-248,342.76-55.57L6686,4552,7021,4460.86l-289.28-192.07,323.69-125.62L6747.7,3982.39l308.78-158.76L6733.61,3695.9l290.52-190.19-334.49-93.27,269.09-219.51-342.45-57.8L6861,2888.7,6514.36,2867l217.58-270.66L6385,2611l188.09-291.92L6229.54,2370l156.53-310-336.31,86.47L6173,1821.81,5847.6,1943l88.65-335.75-311,154.51,53-343.18-293.12,186.18,16.92-346.85-272,215.79L5110.65,1127l-248,243L4807,1027.23l-221.25,267.64-91.09-335.09-192.05,289.29L4177,925.35l-160.76,307.79L3857.44,924.31l-127.73,322.91L3539.55,956.68l-93.28,334.48-219.52-269.07L3169,1364.51l-246.43-244.66-21.68,346.58-270.66-217.55,14.68,346.94-291.93-188.07,50.82,343.51-310-156.53,86.48,336.32-324.65-123.26,121.17,325.43L1641,2044.55l154.51,311-343.16-53.08,186.15,293.13-346.82-16.91,215.79,272.06-346.72,19.44,243.07,248-342.81,55.56L1328.7,3395l-335.1,91.1,289.31,192.06L959.19,3803.8,1267,3964.59,958.14,4123.35l322.91,127.73L990.5,4441.27,1325,4534.54l-269.06,219.51,342.41,57.8-244.66,246.42L1500.27,5080l-217.59,270.65,347-14.67-188.1,291.92L1785.12,5577l-156.56,310,336.31-86.5-123.26,324.67L2167.06,6004l-88.68,335.73,311-154.51-53.07,343.2,293.13-186.15-16.93,346.82,272.06-215.8L2904,6820,3152,6577l55.58,342.77,221.24-267.62,91.1,335.11L3712,6697.89l125.61,323.73,160.77-307.78,158.78,308.82,127.72-322.91ZM4138.7,6646.45l-139.18-270.68-140.94,269.81-110.11-283.8-168.41,253.59-79.84-293.74-193.95,234.61-48.72-300.47-217.43,213-17-303.92-238.5,189.15L2799.44,6050l-257,163.21L2589,5912.38l-272.62,135.46,77.7-294.34-285.27,106.2,108.06-284.58L1922,5650.92l137.22-271.73-301.12,44.58L1923,5167.86l-304.14,12.85,190.74-237.27-303.83-19,214.46-216-300.14-50.65,235.85-192.45-293.23-81.75,254.71-166.72-283.05-112L1605,3965.68l-269.81-140.94L1619,3714.63l-253.6-168.39,293.75-79.85-234.62-193.95L1725,3223.73,1512,3006.31l303.93-17-189.15-238.51,304,14.84-163.21-257,300.83,46.53L1933,2282.54l294.31,77.71L2121.11,2075l284.58,108.06-75.81-294.83,271.74,137.2L2557,1724.3,2813,1889.17,2800.09,1585l237.29,190.71,19-303.81,216,214.45,50.7-300.15,192.44,235.87,81.73-293.23L3764,1583.58l112-283.09,139.21,270.74,140.94-269.82,110.08,283.8,168.41-253.61,79.84,293.74,194-234.61,48.7,300.48,217.43-213.07,17,303.94,238.53-189.16L5215.22,1897l257-163.22-46.55,300.84,272.65-135.44-77.73,294.32,285.27-106.2-108,284.58,294.8-75.8L5955.4,2567.8l301.08-44.58-164.84,255.9,304.15-12.85-190.71,237.26,303.79,19-214.45,216,300.17,50.65-235.88,192.43,293.22,81.77-254.7,166.72,283.08,112-270.72,139.17,269.8,141-283.76,110.12,253.56,168.37-293.71,79.86,234.61,193.95-300.5,48.72,213.06,217.41-303.93,17,189.18,238.5-304.08-14.84,163.21,257-300.83-46.54,135.46,272.61-294.34-77.69L5893.52,5872l-284.58-108.06,75.8,294.82L5413,5921.54l44.55,301.12-255.87-164.88L5214.53,6362l-237.25-190.74-19,303.83-216-214.46-50.65,300.17-192.45-235.89-81.76,293.2L4250.67,6363.4Z"/><path class="cls-1" d="M5553.85,4198.39H4240V3936.63H3774.62v261.76H1923.53a2089.74,2089.74,0,0,0,91.8,391.17H3774.62v268.62l-464.7,464.71c-262.05-129.9-482.49-330.81-636.66-577.45h-597.5c174.16,403.74,470.8,742.24,843.57,968a2092.39,2092.39,0,0,0,452.88,205.27l444.51-444.51L3999.93,5291l7.38-7.38,7.38,7.38,183.21,183.22,444.51,444.51a2092.53,2092.53,0,0,0,452.87-205.27c372.79-225.79,669.42-564.29,843.58-968h-597.5c-154.17,246.64-374.61,447.55-636.66,577.45L4240,4858.18V4589.56H5999.29a2089.74,2089.74,0,0,0,91.8-391.17H5553.85Z"/><path class="cls-1" d="M6049.63,3351.44H5787.24C5605,2705.37,5080.31,2203.17,4421.67,2052.36v384a1475.48,1475.48,0,0,1,622,365.08H4628.58l210.72,309.9h445.11a1470.17,1470.17,0,0,1,112.7,240.09H4765.78l-494.11-864.69-1.17-.43v-85.66h0V1810.3H3744.12v590.36h0v85.66l-1.17.43-494.11,864.69H2617.51a1471,1471,0,0,1,112.7-240.09h445.1L3386,2801.45H2971a1475.38,1475.38,0,0,1,622-365.08v-384c-658.64,150.81-1183.29,653-1365.57,1299.08H1916.52v397H2994.18l-207.82,305.87h452.92l179.44-305.87H4595.9l179.43,305.87h452.94l-207.83-305.87H6098.1v-397Zm-1779.12,0H3691.42l52.7-97.27,263.19-485.73,263.19,485.73,52.71,97.27Z"/><path class="cls-1" d="M3525.38,7398.61h-69.79c-33.69,20.85-73,34.48-128.4,44.91v58.58h105.93v410.81H3303.94v76.23h337v-76.23H3525.38Z"/><path class="cls-1" d="M3897.14,7387.36c-95.48,0-175.72,77-175.72,194.18,0,123.56,66.61,185.35,165.28,185.35,44.94,0,95.49-26.47,130-69-5.63,168.49-67.39,226.28-138.81,226.28-37.72,0-73.81-17.66-97.07-44.13L3731.05,7937c34.5,35.31,82.64,62.6,150.84,62.6,114,0,219.84-93.08,219.84-325.77C4101.73,7478.84,4010.28,7387.36,3897.14,7387.36Zm5.63,312.92c-61.8,0-95.49-43.32-95.49-118.74,0-77,40.1-122.76,90.67-122.76,64.17,0,108.3,52.94,117.15,169.3C3979.78,7679.43,3938.86,7700.28,3902.77,7700.28Z"/><path class="cls-1" d="M4400.66,7398.61h-69.8c-33.69,20.85-73,34.48-128.39,44.91v58.58h105.92v410.81H4179.21v76.23h337v-76.23H4400.66Z"/><path class="cls-1" d="M4763,7387.36c-95.48,0-175.71,77-175.71,194.18,0,123.56,66.6,185.35,165.27,185.35,44.95,0,95.49-26.47,130-69-5.62,168.49-67.38,226.28-138.8,226.28-37.72,0-73.83-17.66-97.08-44.13L4597,7937c34.51,35.31,82.64,62.6,150.84,62.6,113.95,0,219.85-93.08,219.85-325.77C4967.64,7478.84,4876.18,7387.36,4763,7387.36Zm5.63,312.92c-61.8,0-95.49-43.32-95.49-118.74,0-77,40.1-122.76,90.67-122.76,64.17,0,108.3,52.94,117.15,169.3C4845.68,7679.43,4804.77,7700.28,4768.67,7700.28Z"/></g></g></svg>