<svg xmlns="http://www.w3.org/2000/svg" viewBox="0 0 4294.21 3711.12"><defs><style>.cls-1{fill:#c0ae66;}</style></defs><title>資產 1</title><g id="圖層_2" data-name="圖層 2"><g id="圖層_1-2" data-name="圖層 1"><path class="cls-1" d="M0,0,2147.1,3711.12,4294.21,0ZM248.28,138.9H4045.94L2147.1,3427.76Z"/><path class="cls-1" d="M2260.53,2176.25l22.61-81.11,53.23,65.24,14-83,59.75,59.32,5.26-84L2481,2105.4l-3.55-84.12,70.77,45.6-12.33-83.31,75.17,38-21-81.56,78.72,29.89L2639.45,1891l81.41,21.51-37.47-75.41,83.21,12.87-45.13-71.08,84.09,4.1-52.32-66,84.07-4.72-58.93-60.13,83.11-13.48L2796.6,1585l81.25-22.08-70.15-46.57,78.49-30.46-74.62-39,74.87-38.49-78.29-31,70.45-46.12-81.11-22.61,65.25-53.23-83-14,59.33-59.76-84.05-5.25,52.76-65.63-84.13,3.56,45.61-70.79-83.3,12.33,38-75.16-81.55,21L2672.23,923l-78.91,29.38,21.5-81.41-75.4,37.47,12.86-83.22L2481.2,870.4l4.1-84.1-66,52.32-4.71-84.07-60.14,58.94L2341,730.37l-53.64,64.89L2265.28,714l-46.57,70.15-30.46-78.49-39,74.63-38.49-74.89-31,78.3-46.1-70.45-22.62,81.11-53.23-65.25-14,83-59.75-59.32-5.26,84-65.63-52.75,3.56,84.13L1746,822.64l12.32,83.29-75.16-38,21,81.55-78.72-29.89,29.39,78.91L1573.35,977l37.47,75.41-83.21-12.87,45.13,71.08-84.09-4.11,52.32,66-84.06,4.71,58.93,60.14-83.12,13.48,64.9,53.64-81.25,22.09,70.15,46.57-78.5,30.46,74.63,39-74.88,38.49,78.29,31-70.45,46.12,81.11,22.61L1431.48,1634l83,14-59.32,59.75,84,5.26-52.76,65.63,84.13-3.56L1525,1845.89l83.31-12.32-38,75.16,81.55-21L1622,1966.47l78.92-29.38-21.51,81.41L1754.8,1981l-12.86,83.22,71.07-45.13-4.1,84.09,66-52.33,4.72,84.07,60.13-58.93,13.48,83.11,53.65-64.89,22.08,81.25,46.58-70.15,30.45,78.5,39-74.63,38.5,74.88,31-78.3ZM2179,2092.87l-33.74-65.63L2111,2092.66l-26.7-68.81-40.83,61.48-19.36-71.22-47,56.89-11.81-72.86-52.72,51.66-4.13-73.69L1850.63,2022l3.6-73.72-62.31,39.57,11.28-72.94-66.1,32.84,18.84-71.36-69.17,25.75,26.2-69-71.48,18.38,33.27-65.88-73,10.81,40-62.06-73.75,3.12,46.25-57.53-73.67-4.61,52-52.38-72.78-12.28L1577,1564l-71.1-19.83,61.76-40.42L1499,1476.61l65.63-33.75-65.42-34.17L1568,1382l-61.49-40.83,71.23-19.36-56.89-47,72.86-11.81-51.66-52.72,73.69-4.13-45.86-57.83,73.72,3.6L1604,1089.57l72.94,11.28-32.84-66.1,71.36,18.84-25.75-69.17,69,26.2-18.38-71.48,65.88,33.26-10.81-73,62.06,40-3.12-73.75,57.53,46.24,4.61-73.66,52.38,52,12.29-72.78,46.66,57.19,19.82-71.1,40.42,61.76,27.15-68.64L2149,862.27l34.18-65.42,26.69,68.81,40.83-61.49,19.36,71.23,47-56.89,11.81,72.86,52.72-51.67,4.13,73.7,57.84-45.87-3.6,73.73,62.3-39.58-11.28,73,66.11-32.84-18.85,71.36,69.17-25.75-26.19,69,71.48-18.38-33.27,65.88,73-10.8-40,62,73.75-3.11L2680,1209.57l73.66,4.61-52,52.38,72.79,12.28-57.2,46.66,71.1,19.83-61.76,40.42,68.64,27.15-65.64,33.74,65.42,34.18-68.81,26.7,61.49,40.83-71.22,19.36,56.89,47-72.87,11.81,51.66,52.72-73.69,4.13,45.87,57.83-73.73-3.6,39.57,62.31-72.94-11.28,32.84,66.1-71.36-18.84,25.75,69.17-69-26.2,18.38,71.48L2488,1917.1l10.8,73-62-40,3.1,73.75-57.53-46.25-4.61,73.67-52.38-52L2313,2072.1l-46.66-57.2L2246.53,2086l-40.42-61.75Z"/><path class="cls-1" d="M2522.1,1499.29H2203.52v-63.47H2090.69v63.47H1641.85a506.09,506.09,0,0,0,22.26,94.84h426.58v65.14L1978,1772a382.93,382.93,0,0,1-154.37-140H1678.76a510.24,510.24,0,0,0,314.35,284.49l107.78-107.78,44.43-44.42,1.78-1.79,1.79,1.79,44.43,44.42,107.78,107.78a510.24,510.24,0,0,0,314.35-284.49H2470.57a382.93,382.93,0,0,1-154.37,140l-112.68-112.68v-65.14H2630.1a506.09,506.09,0,0,0,22.26-94.84H2522.1Z"/><path class="cls-1" d="M2642.31,1293.92h-63.62c-44.2-156.65-171.41-278.42-331.12-315v93.12a357.7,357.7,0,0,1,150.82,88.52H2297.75l51.09,75.14h107.92a355.91,355.91,0,0,1,27.33,58.21H2331L2211.2,1084.26l-.28-.1v-20.77h0V920.24H2083.29v143.15h0v20.77l-.28.1L1963.2,1293.92H1810.12a355.91,355.91,0,0,1,27.33-58.21h107.92l51.09-75.14H1895.82a357.7,357.7,0,0,1,150.82-88.52V978.93c-159.71,36.57-286.92,158.34-331.12,315h-75.37v96.28h261.3l-50.39,74.16h109.82l43.51-74.16h285.43l43.51,74.16h109.82l-50.39-74.16h261.3v-96.28Zm-431.39,0H2070.51l12.78-23.58,63.81-117.78,63.82,117.78,12.78,23.58Z"/><path class="cls-1" d="M1294,1079.25,1397.76,1064l-79-37.26,12.2-25.88,128.7,60.72-10.91,23.08L1345.18,1100l78.8,37.19-12.22,25.88-128.68-60.72Z"/><path class="cls-1" d="M1244,1228.57l26.57-1.49,14.16-50.15-21.83-15.37,8.1-28.74,122.44,89.94-6.1,21.62-151.45,12.94Zm105.81-5.68L1305,1191l-9.9,35.09Z"/><path class="cls-1" d="M1342.12,1347l-116.32-16.61,4.06-28.33,116.28,16.61,5.41-37.91,24.55,3.5-14.89,104.15-24.52-3.5Z"/><path class="cls-1" d="M1219.51,1400.66l142.28,5.26-1.06,28.6-142.27-5.27Z"/><path class="cls-1" d="M1238.79,1561c-10.79-9.46-17.36-21.54-18.69-38.18s3.24-29.79,12.39-40.85c13.17-15.94,30.93-17,55.44-18.92s42.24-3.8,57.75,9.84c10.79,9.46,17.38,21.74,18.7,38.36s-3.25,29.6-12.4,40.66c-13.17,15.93-30.93,17.16-55.43,19.11S1254.31,1574.65,1238.79,1561Zm94.77-28.89c4.25-4.48,6.74-11.07,6.13-18.88s-4.16-14.13-9.06-17.87c-6.42-5.05-13.1-6-40.42-3.76s-33.75,4.14-39.3,10.15c-4.25,4.48-6.72,11.3-6.1,19.09s4.11,13.92,9,17.66c6.42,5.07,13.13,6.18,40.43,4S1328,1538.16,1333.56,1532.14Z"/><path class="cls-1" d="M1253.83,1704.44l70.54-77.63-84.73,21.36-7-27.74,138-34.81,6.24,24.75L1306.58,1688l84.53-21.32,7,27.74-138,34.82Z"/><path class="cls-1" d="M1309.93,1851.46l19.61-18-20.92-47.71-26.63,2-12-27.32,151.8-8.23,9,20.55L1321.9,1878.8Zm78.22-71.52-54.87,3.77,14.62,33.38Z"/><path class="cls-1" d="M1338.23,1906.05l120.5-75.75,15.25,24.22-99.5,62.55,35.42,56.3-21,13.19Z"/><path class="cls-1" d="M1477,2092.36c-11.12-11.6-16.18-25-16.07-39.35.14-20.65,13.29-32.65,31.07-49.63s30.33-29.56,51-28.81c14.34.55,27.5,6.2,38.6,17.8,18.93,19.8,22.76,45.77,4.79,70.06l-20.07-21c6.25-9.94,7.48-21.39-2.48-31.79-5.43-5.66-11.86-8.34-18-8.14-8.19.13-14.24,3.63-34,22.56s-23.58,24.8-24,33c-.48,6.14,1.91,12.7,7.31,18.36,10,10.41,21.45,9.7,31.68,3.91l20.08,21C1521.69,2117.14,1495.79,2112,1477,2092.36Z"/><path class="cls-1" d="M1606.59,2203.43l35.93-47.47L1603,2126l-35.92,47.48-22.8-17.29,85.85-113.44,22.79,17.29-35.08,46.36,39.52,30,35.1-46.36,22.8,17.27-85.85,113.45Z"/><path class="cls-1" d="M1716.31,2271.85c-26.67-13.9-38.66-42.48-24.66-69.22l43.36-82.86,25.36,13.23-42.89,82c-7.6,14.52-3.38,27.77,10.31,34.93s27.16,3.12,34.77-11.39l42.9-82,25.2,13.15-43.39,82.88C1773.28,2279.29,1743,2285.77,1716.31,2271.85Z"/><path class="cls-1" d="M1890.51,2340.64,1862,2239.71l-26.73,83.17-27.25-8.77,43.56-135.5,24.31,7.82,28.61,100.75,26.66-83,27.27,8.74-43.56,135.5Z"/><path class="cls-1" d="M2054.37,2357.21c-13.31,10-27.81,12.31-43.28,10.06-15.89-2.32-28.12-9.75-36.88-21.13-12.59-16.37-9.61-33.91-6.06-58.22s5.7-42,22.44-54.07c11.64-8.42,25.08-12.09,41.37-9.72,33.63,4.89,47.62,28.74,48,53l-28.54-4.16c-1.32-13.71-8.6-22.26-23-24.37-7.76-1.12-14.51.93-19.25,4.87-6.38,5.14-8.74,11.45-12.69,38.53s-3.5,34,1.14,40.76c3.4,5.14,9.33,8.83,17.06,10,8.56,1.24,15.91-.71,21.32-5,5.44-4.45,8.2-10.52,9.28-17.83l.76-5.33-26.68-3.91,3.34-22.91,54.8,8-3,20.54C2071.52,2336.69,2066.06,2348.43,2054.37,2357.21Z"/><path class="cls-1" d="M2239.92,2371.84l-4.34-59.41-49.47,3.59,4.33,59.42-28.53,2.06-10.36-141.93,28.54-2.07,4.24,58,49.47-3.61-4.24-58,28.55-2.07,10.36,141.93Z"/><path class="cls-1" d="M2355.56,2353.64c-21.65,5.08-39.13,4.45-56.41-6.07l13.93-21.72c11.06,6.62,24,6.69,37.21,3.59,16.44-3.86,23.83-12,21.24-23.06-1.16-4.86-3.51-8.6-7.17-10.62-3.4-1.88-6.94-2.49-13.78-1.9l-17.79,1.68c-12.62,1.12-22.51-.47-30.35-5-8.36-5-13.87-13.18-16.63-24.86-5.79-24.69,9-46.44,39.84-53.67,19.63-4.6,35-3.26,49.89,5.36l-13.67,21.05c-11-6.24-22.08-4.89-31.5-2.66-14.82,3.48-20.16,13.13-17.93,22.66a13.6,13.6,0,0,0,6.54,8.94c3.41,1.86,8.53,2.93,14.51,2.36l17.4-1.63c13.43-1.27,22.49.29,29.76,4.32,9.27,5.22,15.06,14.54,17.94,26.81C2404.91,2326.07,2385.41,2346.66,2355.56,2353.64Z"/><path class="cls-1" d="M2442.73,2327.79l-47.62-134.18,27-9.59,47.6,134.2Z"/><path class="cls-1" d="M2589.83,2263.9l-91.12-52L2538,2290l-25.56,12.87-63.93-127.24,22.79-11.45,91,51.82-39.15-77.92,25.55-12.86,64,127.23Z"/><path class="cls-1" d="M2718.47,2160.8c-2.51,16.47-11.21,28.27-23.84,37.51-13,9.5-26.91,12.77-41.12,10.79-20.47-2.85-30.64-17.45-45.16-37.29s-25.38-34-21.9-54.33c2.39-14.15,9.4-26.21,22.69-35.93,27.42-20.08,54.15-12.87,71.45,4.18l-23.25,17c-10.57-8.87-21.76-9.85-33.56-1.21-6.32,4.63-9.69,10.82-10.29,17-.95,8.11,1.78,14.29,18,36.39s21.35,26.74,29.39,28.29c6.05,1.27,12.84-.24,19.15-4.86,7-5.1,10.87-11.66,11.74-18.49.75-7-1.54-13.26-5.91-19.22l-3.19-4.36-21.75,15.94-13.71-18.71,44.7-32.72,12.29,16.78C2716.31,2134.16,2720.63,2146.34,2718.47,2160.8Z"/><path class="cls-1" d="M2844.36,2061.61c-19.86,22.57-50.49,27.43-73.11,7.51l-70.16-61.8,18.92-21.51,69.41,61.15c12.28,10.83,26.14,9.88,36.34-1.72s9.53-25.63-2.77-36.46l-69.38-61.13,18.76-21.34,70.17,61.79C2865.15,2008,2864.23,2039.05,2844.36,2061.61Z"/><path class="cls-1" d="M2952.87,1908.92l-104.8,3.53,74.29,45.88-15.05,24.35-121-74.75,13.41-21.71,104.63-3.65-74.12-45.75,15-24.35,121.05,74.72Z"/><path class="cls-1" d="M2985.13,1846.27l-129.44-59,11.84-26L2997,1820.25Z"/><path class="cls-1" d="M3031.19,1729.18l-6.7,20.32-150.23,1.42,9.28-28.14,97.24,1-78.84-57,9.33-28.33Z"/><path class="cls-1" d="M3052.83,1653.13l-140.19-24.54,16.65-95.06,24.41,4.27L2942,1604.7l32.89,5.75,10-57,24.42,4.27-10,57,34.07,6,11.73-66.9,24.4,4.28Z"/><path class="cls-1" d="M3075,1438.88l-57.32,27.4-.44,20.59,56.75,1.22-.63,28.62-142.22-3.06,1.22-57.45c.64-29.85,20.78-47.13,44.55-46.63,20,.45,32.11,13.28,36.79,27.58l62-31.42Zm-117.92,19.71-.57,27,37.56.81.57-27c.27-12.57-7.34-21-18.32-21.21S2957.39,1446,2957.11,1458.59Z"/><path class="cls-1" d="M3068.35,1328.57c2.9,22,.57,39.4-11.62,55.54l-20.27-16c7.71-10.37,9-23.22,7.27-36.7-2.22-16.73-9.54-24.9-20.84-23.42-4.94.65-8.91,2.63-11.29,6.06-2.19,3.2-3.15,6.65-3.26,13.52l-.06,17.87c-.14,12.69-2.69,22.37-8,29.72-5.83,7.83-14.48,12.51-26.36,14.07-25.17,3.32-45.34-13.55-49.49-45-2.64-20,.21-35.12,10.27-49.12l19.61,15.68c-7.33,10.32-7,21.5-5.79,31.1,2,15.1,11.1,21.38,20.79,20.11a13.6,13.6,0,0,0,9.54-5.63c2.21-3.18,3.77-8.18,3.76-14.19l.13-17.48c0-13.51,2.5-22.34,7.24-29.21,6.11-8.68,16-13.52,28.44-15.18C3045.78,1276.7,3064.35,1298.16,3068.35,1328.57Z"/><path class="cls-1" d="M3051.14,1239,2913,1273.24l-6.87-27.78,138.1-34.23Z"/><path class="cls-1" d="M2903.44,1156.83l110.32-40.34,9.82,26.88-110.33,40.34,13.13,36-23.27,8.51L2867,1129.37l23.26-8.51Z"/><path class="cls-1" d="M2907.44,1026.41l51.5-27.48,13.39,25-51.48,27.49-53.28,78.39-14.65-27.4,37.69-51.17-63.31,3.25-14.67-27.4Z"/><path class="cls-1" d="M3041.1,302.51H2902.79V227.75a18.13,18.13,0,0,0-36.25,0v74.76H2728.22a17.81,17.81,0,1,0,0,35.61h138.32l0,70.64c-8.37,46.66-80.95,143.3-143.82,191.49a17.6,17.6,0,0,0-3.14,25,18.14,18.14,0,0,0,14.3,6.85,18.34,18.34,0,0,0,11.13-3.77c52.09-39.92,110.2-109.36,139.61-166.53,29.41,57.16,87.52,126.6,139.61,166.53a18.35,18.35,0,0,0,25.44-3.08,17.64,17.64,0,0,0-3.14-25c-62.88-48.2-135.45-144.84-143.78-191.14v-71H3041.1a17.81,17.81,0,1,0,0-35.61Z"/><path class="cls-1" d="M3544.36,409h-12V246a18.82,18.82,0,0,0-18.8-18.8H3461a18.8,18.8,0,0,0,0,37.59h33.82V279.6H3465a19.78,19.78,0,1,0,0,39.56h29.87v24.56H3465a19.78,19.78,0,1,0,0,39.56h29.87V409h-41.18a18.15,18.15,0,0,0-1-4.45c-6.7-17.51-17-33.1-31.32-47.61l22-19.78a16.86,16.86,0,0,0,1.29-23.76,16.41,16.41,0,0,0-6.65-4.48,17.83,17.83,0,0,0-4.87-22.71L3411.84,270l19.28-17.29a16.82,16.82,0,1,0-22.47-25l-24.09,21.62L3357.82,229a17.81,17.81,0,1,0-21.54,28.37l21.28,16.15-19.27,17.3a16.81,16.81,0,0,0,4.48,27.93,15.63,15.63,0,0,0-1.38,1.88,17.78,17.78,0,0,0,5.57,24.55c6.51,4.11,14.05,8.93,21.37,14L3329,394.47a16.77,16.77,0,0,0-5.43,14.48h-47V383.28h28.89a19.78,19.78,0,1,0,0-39.56h-28.89V319.16h28.89a19.78,19.78,0,0,0,0-39.56h-28.89V248.71h33.82a18.8,18.8,0,1,0,0-37.59h-52.61a18.81,18.81,0,0,0-18.8,18.79V409h-18.19A17.83,17.83,0,0,0,3203,426.76V491a17.81,17.81,0,0,0,35.61,0V444.57h288V491a17.81,17.81,0,0,0,35.62,0v-64.2A17.83,17.83,0,0,0,3544.36,409Zm-178.42-93.9a16.8,16.8,0,0,0-2.73-1.41l21.64-19.41,26.73,20.29a17.23,17.23,0,0,0,4,2.29l-20.13,18.07C3385.29,327.4,3374.87,320.67,3365.94,315.05Zm28.83,65.65A106.24,106.24,0,0,1,3415.64,409h-52.37Zm47.59,28.16a2,2,0,0,1,1.58.09h-1.88Z"/><path class="cls-1" d="M2021.8,276.2H1918.93V224.29a19.79,19.79,0,0,0-39.57,0V276.2H1776.49A41.86,41.86,0,0,0,1734.67,318V450a41.86,41.86,0,0,0,41.82,41.81h102.87V630.07a19.79,19.79,0,1,0,39.57,0V491.79H2021.8A41.86,41.86,0,0,0,2063.61,450V318A41.86,41.86,0,0,0,2021.8,276.2ZM1879.36,449h-100a2.26,2.26,0,0,1-2.25-2.26V320.18a2.25,2.25,0,0,1,2.25-2.25h100Zm141.45-2.26a2.26,2.26,0,0,1-2.26,2.26h-99.62V317.93h99.62a2.26,2.26,0,0,1,2.26,2.25Z"/><path class="cls-1" d="M1557.22,574.52h-99.06l22.7-31.15a118.31,118.31,0,0,0,14.78-49.12l13.24-182.63a19.82,19.82,0,0,0,0-2.44h37.48a21.75,21.75,0,0,0,0-43.5H1420.15V220.35a19.78,19.78,0,0,0-39.56,0v45.33H1254.36a21.75,21.75,0,0,0,0,43.5h213.05l-13.2,182.07a76.34,76.34,0,0,1-9.47,31.61l-33.87,50.08a16.34,16.34,0,0,0-.76,1.58H1246.47a23.73,23.73,0,1,0,0,47.45h310.75a23.73,23.73,0,1,0,0-47.45Z"/><path class="cls-1" d="M1337.22,552.41a18.76,18.76,0,0,0,2.11-.11,20,20,0,0,0,13.73-7.28,18,18,0,0,0,4-13.4,1284.78,1284.78,0,0,0-37.2-195.54c-2.68-10-13.47-16.13-24.11-13.61a19.57,19.57,0,0,0-12.5,9,17.79,17.79,0,0,0-2,13.85,1249.86,1249.86,0,0,1,36.19,190.3C1318.55,545.19,1327,552.41,1337.22,552.41Z"/><path class="cls-1" d="M2546.57,510.19h-50.32a16.68,16.68,0,0,0,.39-3.57V481.78H2541a23.59,23.59,0,0,0,23.57-23.56V271.15A23.59,23.59,0,0,0,2541,247.59h-45.54a40.59,40.59,0,0,0-39.33-30.91h-124.3a40.6,40.6,0,0,0-39.34,30.91h-37a29.35,29.35,0,0,0-29.32,29.31V452.46a29.35,29.35,0,0,0,29.32,29.32h35.82v24.84a16.68,16.68,0,0,0,.39,3.57h-64.13a19.78,19.78,0,0,0,0,39.56h93.27a560.68,560.68,0,0,1-87.21,65.42,18.79,18.79,0,0,0,19.45,32.16A600.33,600.33,0,0,0,2352.26,572a18.83,18.83,0,0,0,3.84-22.22h79.39a19.77,19.77,0,0,0,7.25,25.19l82.7,52.61a19.78,19.78,0,0,0,21.24-33.38l-69.84-44.42h69.73a19.78,19.78,0,1,0,0-39.56Zm-49.93-223H2525V345h-28.39Zm0,97.41H2525v57.66h-28.39Zm-205.29,57.66h-25.58V384.56h25.58Zm0-97.22h-25.58V287.15h25.58Zm153.44,165.19v-.05h-29.68v.05H2327V316.74H2429a15.83,15.83,0,0,0,0-31.66H2327V257.17a4.89,4.89,0,0,1,4.88-4.88h124.3c4,0,4.87,5.24,4.87,9.63V503.75a41.36,41.36,0,0,0,.52,6.44Z"/><path class="cls-1" d="M1046.65,216.35H762.54a19.8,19.8,0,0,0-19.78,19.78V612.32a19.8,19.8,0,0,0,19.78,19.78h284.11a19.8,19.8,0,0,0,19.78-19.78V236.13A19.8,19.8,0,0,0,1046.65,216.35Zm-61.23,39.56c-.65,3-1.37,7-2.18,11.54-2.4,13.31-5.68,31.55-9.57,37.93q-.2.33-.36.66H961c-.19-6.61-.37-18.79-.53-29.66-.11-8.07-.23-15.69-.33-20.47Zm-203.11,0H916.63c.11,4.77.22,12.44.34,20.58.17,11.31.34,23,.52,29.55H782.31Zm0,336.63v-243H921c2,36.34,3.29,52.46,8.53,92.34,2.33,17.72,10,34.76,17.46,51.24,1.41,3.13,2.82,6.24,4.16,9.32a413.63,413.63,0,0,0-38.6,90.09Zm167.56,0a375.18,375.18,0,0,1,21.65-52.82c3.86,5.73,8,11.31,12.31,16.6A407.76,407.76,0,0,0,1017,592.54Zm77-52.74c-3.35-3.79-6.42-7.41-9.31-11a184,184,0,0,1-20.95-32.05,441.91,441.91,0,0,1,30.26-39.94Zm0-135.46a505.21,505.21,0,0,0-45.6,52.5c-1-2.47-2.25-4.92-3.47-7.32-2.24-4.4-4.56-8.95-5.13-13.29-5-38.11-6.22-52.5-8.08-86.68h62.28Zm0-98.3h-24.63c3.82-10.69,7.91-33.24,10.2-45.9.29-1.58.54-3,.77-4.23h13.66Z"/><path class="cls-1" d="M882.8,373.07h-50A36.82,36.82,0,0,0,796,409.85V458a36.82,36.82,0,0,0,36.78,36.78h50A36.81,36.81,0,0,0,919.57,458V409.85A36.81,36.81,0,0,0,882.8,373.07Zm.38,85a.38.38,0,0,1-.38.37h-50a.38.38,0,0,1-.38-.37V409.85a.37.37,0,0,1,.38-.37h50a.38.38,0,0,1,.38.37Z"/><path class="cls-1" d="M893.42,514.8H810.55a18.2,18.2,0,1,0,0,36.4h82.87a18.2,18.2,0,1,0,0-36.4Z"/><path class="cls-1" d="M2405.37,342.46h-24a37,37,0,0,0-36.77,36.78v76.62a36.82,36.82,0,0,0,36.77,36.78h24a37.46,37.46,0,0,0,36.78-36.78V379.24A36.82,36.82,0,0,0,2405.37,342.46Zm4.84,104.62a9,9,0,0,1-9,9h-15.63a9,9,0,0,1-9-9V387.45a9.48,9.48,0,0,1,9-9h15.63a8.93,8.93,0,0,1,8.81,7.93,9.73,9.73,0,0,1,.22,1.1Z"/><path class="cls-1" d="M3539.75,546h-117.9l45.49-48.65c12.36-12.66,9.91-32.76-17.22-32.76H3320.26c-9.82,0-20.11-1-24.58,10.44-4.18,10.67,8.4,24.08,8.4,24.08l43.7,46.89H3220.13a17.81,17.81,0,1,0,0,35.61h158.41v24.69h-72.63a17.81,17.81,0,1,0,0,35.62h93.26a17.83,17.83,0,0,0,17.8-17.81v-42.5h122.78a17.81,17.81,0,1,0,0-35.61Zm-155-7.66-45.46-47.08h90Z"/><path class="cls-1" d="M1933.36,2539.54h-24.44c-11.8,7.3-25.57,12.08-45,15.73v20.51h37.09v143.86h-45.23v26.69h118v-26.69h-40.46Z"/><path class="cls-1" d="M2063.54,2535.61c-33.44,0-61.53,27-61.53,68,0,43.27,23.32,64.9,57.87,64.9,15.74,0,33.44-9.27,45.52-24.16-2,59-23.6,79.24-48.6,79.24a46.11,46.11,0,0,1-34-15.46l-17.42,19.94c12.08,12.37,28.94,21.92,52.82,21.92,39.9,0,77-32.59,77-114.07C2135.18,2567.64,2103.16,2535.61,2063.54,2535.61Zm2,109.57c-21.64,0-33.44-15.17-33.44-41.58,0-27,14-43,31.75-43,22.47,0,37.93,18.54,41,59.29C2092.48,2637.88,2078.15,2645.18,2065.51,2645.18Z"/><path class="cls-1" d="M2239.85,2539.54h-24.44c-11.8,7.3-25.56,12.08-45,15.73v20.51h37.09v143.86h-45.23v26.69h118v-26.69h-40.46Z"/><path class="cls-1" d="M2366.75,2535.61c-33.44,0-61.53,27-61.53,68,0,43.27,23.32,64.9,57.87,64.9,15.74,0,33.44-9.27,45.52-24.16-2,59-23.6,79.24-48.6,79.24a46.1,46.1,0,0,1-34-15.46l-17.42,19.94c12.08,12.37,28.94,21.92,52.82,21.92,39.9,0,77-32.59,77-114.07C2438.39,2567.64,2406.37,2535.61,2366.75,2535.61Zm2,109.57c-21.64,0-33.44-15.17-33.44-41.58,0-27,14-43,31.75-43,22.47,0,37.92,18.54,41,59.29C2395.69,2637.88,2381.36,2645.18,2368.72,2645.18Z"/></g></g></svg>