<svg xmlns="http://www.w3.org/2000/svg" viewBox="0 0 9720 2286.47"><defs><style>.cls-1,.cls-2{fill:#c0ae66;}.cls-2{fill-rule:evenodd;}</style></defs><title>資產 1</title><g id="圖層_2" data-name="圖層 2"><g id="圖層_1-2" data-name="圖層 1"><rect class="cls-1" x="6385.33" y="2021.69" width="3179.56" height="12.81"/><path class="cls-1" d="M2914.68,1804.63l-85-127.83v127.83h-41.9V1596.35h37.4l85,127.54V1596.35h41.94v208.28Z"/><path class="cls-1" d="M3112,1804.63l-12.68-36.85h-76.29l-13,36.85h-43.71l78.09-208.28h32.87l78.38,208.28ZM3062,1657.79l-27.15,75.75h53.36Z"/><path class="cls-1" d="M3234,1632.63v172h-41.9v-172H3136v-36.28h154.1v36.28Z"/><path class="cls-1" d="M3312,1804.63V1596.35h41.9v208.28Z"/><path class="cls-1" d="M3521.77,1783.57c-15.09,14.63-33.49,22.81-57.9,22.81s-43.13-8.18-58.21-22.81c-21.71-21.06-21.1-47.09-21.1-83.08s-.61-62,21.1-83.08c15.08-14.63,33.77-22.8,58.21-22.8s42.81,8.17,57.9,22.8c21.71,21.07,21.38,47.1,21.38,83.08S3543.48,1762.51,3521.77,1783.57ZM3490.7,1642c-6-6.74-15.38-11.13-26.83-11.13s-21.13,4.39-27.14,11.13c-8.14,8.78-10.26,18.43-10.26,58.5s2.12,49.72,10.26,58.51c6,6.73,15.66,11.12,27.14,11.12s20.81-4.39,26.83-11.12c8.13-8.79,10.55-18.44,10.55-58.51S3498.83,1650.77,3490.7,1642Z"/><path class="cls-1" d="M3700.7,1804.63l-85-127.83v127.83h-41.9V1596.35h37.4l85,127.54V1596.35h41.94v208.28Z"/><path class="cls-1" d="M3898.07,1804.63l-12.67-36.85h-76.29l-13,36.85h-43.71l78.09-208.28h32.87l78.38,208.28Zm-50-146.84-27.15,75.75h53.36Z"/><path class="cls-1" d="M3956.11,1804.63V1596.35H3998v172h97.38v36.27Z"/><path class="cls-1" d="M2868.47,2133.11c-23.51,0-42.8-8.18-57.89-22.81-21.71-21.06-21.1-47.09-21.1-83.08s-.61-62,21.1-83.08c15.09-14.63,34.38-22.8,57.89-22.8,40.11,0,71.47,22.21,79,65.81H2905c-4.21-16.67-15.08-29.56-36.18-29.56-11.45,0-20.81,4.11-26.86,10.84-8.14,8.76-10.55,18.72-10.55,58.79s2.41,50,10.55,58.79c6,6.74,15.41,10.84,26.86,10.84,21.1,0,32-12.89,36.18-29.56h42.52C2939.94,2110.89,2908.29,2133.11,2868.47,2133.11Z"/><path class="cls-1" d="M3086.08,2131.36v-87.18h-72.69v87.18h-41.91V1923.08h41.91v85.13h72.69v-85.13H3128v208.28Z"/><path class="cls-1" d="M3241.47,2133.11c-44,0-79-29-79-73.13v-136.9h41.91v135.45c0,24,14.48,38.32,37.09,38.32s37.4-14.35,37.4-38.32V1923.08h41.62V2060C3320.49,2104.16,3285.5,2133.11,3241.47,2133.11Z"/><path class="cls-1" d="M3481.93,2131.36l-85-127.83v127.83H3355V1923.08h37.41l85,127.54V1923.08h41.91v208.28Z"/><path class="cls-1" d="M3689.52,2109.42c-17.2,17.26-37.69,23.69-60.62,23.69-23.51,0-42.81-8.18-57.9-22.81-21.71-21.06-21.1-47.09-21.1-83.08s-.61-62,21.1-83.08c15.09-14.63,33.77-22.8,57.9-22.8,49.75,0,75.1,31.57,80.82,66.67h-42.23c-4.82-19.58-17.17-30.42-38.59-30.42-11.45,0-20.81,4.39-26.83,11.13-8.13,8.78-10.26,18.43-10.26,58.5s2.13,50,10.26,58.79c6,6.74,15.38,10.84,26.83,10.84,12.67,0,22.93-4.39,29.88-11.7,6.91-7.61,9.65-17,9.65-27.79v-7.91H3628.9v-33.93H3710v30.42C3710,2076.08,3704.57,2094.2,3689.52,2109.42Z"/><path class="cls-1" d="M3912.78,2131.36v-87.18h-72.69v87.18h-41.91V1923.08h41.91v85.13h72.69v-85.13h41.91v208.28Z"/><path class="cls-1" d="M4051.61,2133.11c-32.58,0-57.32-6.72-78.42-27.49l27.15-26.34c13.57,13.18,32,17.57,51.84,17.57,24.74,0,38-9.07,38-25.74,0-7.33-2.12-13.47-6.66-17.57-4.21-3.8-9-5.83-19-7.31l-26-3.51c-18.36-2.63-31.93-8.19-41.58-17.26-10.26-9.94-15.38-23.41-15.38-40.94,0-37.15,28.34-63.18,74.78-63.18,29.52,0,51,7,69.34,24.26l-26.53,25.46c-13.57-12.59-29.85-14.33-44-14.33-22.32,0-33.16,12-33.16,26.32a19.73,19.73,0,0,0,6.34,14.92c4.21,3.8,11.16,7,19.87,8.19l25.35,3.51c19.58,2.63,32,7.9,41,16.09,11.45,10.53,16.6,25.75,16.6,44.16C4131.21,2110.3,4096.5,2133.11,4051.61,2133.11Z"/><path class="cls-1" d="M4158.5,2131.36V1923.08h41.91v208.28Z"/><path class="cls-1" d="M4365.3,2131.36l-85-127.83v127.83h-41.9V1923.08h37.4l85,127.54V1923.08h41.9v208.28Z"/><path class="cls-1" d="M4572.9,2109.42c-17.21,17.26-37.7,23.69-60.63,23.69-23.51,0-42.81-8.18-57.9-22.81-21.71-21.06-21.09-47.09-21.09-83.08s-.62-62,21.09-83.08c15.09-14.63,33.78-22.8,57.9-22.8,49.75,0,75.1,31.57,80.82,66.67h-42.23c-4.82-19.58-17.17-30.42-38.59-30.42-11.45,0-20.81,4.39-26.82,11.13-8.14,8.78-10.27,18.43-10.27,58.5s2.13,50,10.27,58.79c6,6.74,15.37,10.84,26.82,10.84,12.67,0,22.93-4.39,29.88-11.7,6.91-7.61,9.65-17,9.65-27.79v-7.91h-39.53v-33.93h81.11v30.42C4593.38,2076.08,4588,2094.2,4572.9,2109.42Z"/><path class="cls-1" d="M4757.2,2133.11c-44,0-79-29-79-73.13v-136.9h41.9v135.45c0,24,14.48,38.32,37.09,38.32s37.4-14.35,37.4-38.32V1923.08h41.62V2060C4836.22,2104.16,4801.23,2133.11,4757.2,2133.11Z"/><path class="cls-1" d="M4997.66,2131.36l-85-127.83v127.83h-41.91V1923.08h37.41l85,127.54V1923.08H5035v208.28Z"/><path class="cls-1" d="M5072.87,2131.36V1923.08h41.91v208.28Z"/><path class="cls-1" d="M5230.82,2131.36h-31.36l-70.85-208.28H5172l43.14,135.73,43.09-135.73H5302Z"/><path class="cls-1" d="M5315.71,2131.36V1923.08h141.42v36.28h-99.51v48.85h84.75v36.27h-84.75v50.61h99.51v36.27Z"/><path class="cls-1" d="M5599.92,2131.36,5558,2048.28h-30.17v83.08h-41.9V1923.08h84.14c43.7,0,69.63,29,69.63,63.78,0,29.24-18.4,47.38-39.18,54.69l47.92,89.81Zm-32.58-172h-39.5v55h39.5c18.4,0,30.46-11.41,30.46-27.49S5585.74,1959.36,5567.34,1959.36Z"/><path class="cls-1" d="M5730,2133.11c-32.59,0-57.32-6.72-78.42-27.49l27.15-26.34c13.57,13.18,32,17.57,51.84,17.57,24.74,0,38-9.07,38-25.74,0-7.33-2.12-13.47-6.66-17.57-4.21-3.8-9-5.83-19-7.31l-25.92-3.51c-18.4-2.63-32-8.19-41.62-17.26-10.26-9.94-15.38-23.41-15.38-40.94,0-37.15,28.34-63.18,74.78-63.18,29.52,0,51,7,69.34,24.26l-26.53,25.46c-13.57-12.59-29.85-14.33-44-14.33-22.32,0-33.16,12-33.16,26.32a19.73,19.73,0,0,0,6.34,14.92c4.21,3.8,11.16,7,19.9,8.19l25.32,3.51c19.58,2.63,32,7.9,41,16.09,11.45,10.53,16.6,25.75,16.6,44.16C5809.64,2110.3,5775,2133.11,5730,2133.11Z"/><path class="cls-1" d="M5836.93,2131.36V1923.08h41.91v208.28Z"/><path class="cls-1" d="M5998.76,1959.36v172h-41.9v-172h-56.1v-36.28h154.1v36.28Z"/><path class="cls-1" d="M6158.76,2045.94v85.42h-41.62v-85.42l-64.51-122.86h45.54l40.11,84,39.49-84h45.51Z"/><path class="cls-2" d="M5312.75,874.74s-27.11,28.59-93.83-73.63c0,0-106.59-219.74-50.62-356.33,0,0,8.74-31.65,79.74-6.29,0,0,47.83-6.91,66.9-27.72,0,0,170.16-25.45,220.7-32.27l167.9-36.11s1.74-82.11,10.05-97.85c0,0-17.66-40.14,17.05-55.36,0,0,75.11-43.37,81.85,17.76l-13,111.05s-8.4,18.36,60.68,9.27c0,0,172.62-9.45,193.52,1.57,0,0,73.71,25.45,64.53,83.6,0,0,47.57,9-296.17,208.29,0,0-59.81,67.59,12.24,48,0,0,21.51-15.47,31.66,5.95l39.69,3.58s58.24,1.23,52.65,19.68l-24.4,20.63s-5.6,15.83,18.19,16.36c0,0-13.29,5-11,18.27,0,0-26.5,4.72-24.31,20.73,0,0-98.11,3.14-109.13,21.42,0,0-13.12,116.39-10.84,376.27,0,0-8.92,164.22,6.82,175.15,0,0-4.11,66.19-12.59,87.18,0,0-13.12,238.37-18.72,254.11,0,0-58.93,27.89-73,64.71,0,0-20.55-29.65-9.36-177.86l-2.45-254.55,13.3-487.5s19.76-55.26-58-17.22l-125.39,39.7s-50.28-9.1-22.74-56.14c0,0,1.66-76.86,49.58-86.4l110.18-63.92s27.11-25.88,48.09-17.48c0,0,19.68-52.65,23.09-89.63l10.49-111.15s11.2-26.32-53-6.46c0,0-117.7,47.83-136.23,47.39,0,0-107,48.09-112.72,63.83l-47.83,6.91S5310.91,471.71,5279,479c0,0-45.56,20.2-11.46,36.9,0,0,23.7,5.77,19.07,95.84l25.79,157L5301.21,795,5337,856.73l-3.23,26.4Zm487.32-342,10-95.23s10.76-7.69,8.57-26.32l148.56-4.72L5845.63,509.84Z"/><path class="cls-2" d="M6349,1071.33l21.34,37.77s.52,41.54,16.78,58.5c0,0,3.5,27.72,18.54,30.87,0,0-.35,22.12,17.58,25.27,0,0-7.35,17.75,28.24,32.35,0,0,37,17.49,35.33,29.82,0,0,57.19-23.61,92.34-49.14l78.17-32.88,36.55-28.24s-11.8-26.5,21.08-10.58c0,0,18.62-32.79,29.64-31.22,0,0-33.05-4.81-39,11.63,0,0-24.92,5,1.66-11l41.89-18.45-1.05-16.61,11.11-2.54-9.36-14.08s-5.16-18.1,14.08-9.35l21.07-16.09s-9.44-9.88-16.61,2.36l-15.22-.35-34.71,7.6s-21.25,20.29-22.13.88c0,0-136.15,23.35-186.42,47.13,0,0-18.28,13.38-92.08-26.93l-58.94-26.15Z"/><polygon class="cls-2" points="6797.1 1076.92 6923.89 1031.28 6925.55 1018.86 7010.63 986.16 6805.93 1052.26 6797.1 1076.92"/><path class="cls-2" d="M7174.72,945.45s24.39,22.65,30.34,69.78c0,0,21.25,42,37.68,45.12,0,0,2.19,30.52,24.32,28.16,0,0,37.42,60.34,37.07,74.15,0,0,14-2.45,18.8,25.27,0,0,18.8,28.07,33.93,32.62,0,0-.53,24.83,27,32.35,0,0,15.56,41.89,34.71,53.34,0,0,23.35,8.84,25.8,21.34,0,0,9.53,8.48,10.14-20.55s-.7-31.83-.7-31.83,24.84,4.64,25.1-72.75c0,0,10.23-22-.61-31.83,0,0,15.47-14.86-12.16-16.88l-4.9-29.12-150-97.32-84.73-48.88-35.33-29.82Z"/><path class="cls-2" d="M6097.83,1041.23s16.87-47.31,9.53-76.6c0,0-9.45-50.63,56.22-22.65L6518,856.9s26.58-489.94-18.27-496.24c0,0-52.3-35.59,35.85-65.49,0,0,40.48-30.87,65.23,49.14,0,0,16.79,79.92.61,95.49,0,0,17.66,40.13,2.8,111.4L6603,609.52s-10,214.5,8.39,222.9c0,0,52.64,14.34,38-44.25l2.1-217.38s-2.8-114,12.85-105.72c0,0-2.62-119.45-15.65-127.67,0,0-22.91-45.56-42-22.12,0,0-34-21.95,11.54-44.77,0,0,93.56-37.78,117.17,98l-10.05,219.74-2.19,220,56.22-22.56s18.28-230.32-7.43-268c0,0-3.67-77,18.36-110.88,0,0,18.81-134.84-29.46-109.39,0,0-25.8-32.36,75.11-43.37l126.09-63.57,48.36-33.41s121.63,15.92,75,89.11c0,0,9.54,45.29,133.62-52.73l32.26-20.55,13.12,8.22s72.4-38.13,49.76,30.26c0,0-14.78,68.64-58.33,118,0,0-35.06,153-51.33,168.59,0,0,72.41,81.06,21.86,90.59,0,0,20.29,40.23-32.87,47l1.05,76.95s190.8-1.14,228.75-37.42c0,0,117.43-31.92,80.09,97.15,0,0,10.23,16.17-116.91,13.37l-185.64,1.23s-64.18,25.18-67.68,67.5c0,0-52.64-19.67-28.24-48.35,0,0-84.56-9.8-90.6,22,0,0-1.39,66.19-40.39,30.86,0,0-31.13,89.46-54,41.28,0,0-42.23-6.21-7.25-29.3l-20.38-37.6s-69.17,9.1-72.58,46.17c0,0-16.35,15.57-20.72-24.31l-98.72,27-14.17,42.06s-17.49-48.09-47.22-24.92c0,0-189.14,43.64-412.12,179.35,0,0-62.34,64.88-93.12,16.52l-26.06-24.48Zm915.35-297.05c0,1.41,15.48-140.69,6-152,0,0,7.44-22,24.93-2.28,0,0,74.76,128.9,35,108.7l13.47,21s6.56,14-24,17.49l-34.72,6.12s-20.72-.43-20.72,1m115.95-51.41c2.89-1.92-35.5,3-64.18-103.71,0,0,55.17,3.94,68.64,24.92Zm-105-130.9,3.85-52.56,8.48-10.84-16.61,2.45,21.42-30,56.58,69-48.89,23.87Zm22.74-159.94,11.1-66.19s3.33-26.15,30.69-7.61c0,0,29.12-6.29,44.07,7.87,0,0,64.1-22.12,38.22,23l-16.18,108.86s-3.41,27.64-26.32,2.19c0,0-52.81-55.09-61-59.37l-13.9,2.45ZM6858.93,775.4l2-30.43,18.8,29.47Zm77.48-15.48L6941.48,646c-72.93,62.08-5.07,113.93-5.07,113.93m-23.53-138.33s14-34.19,6.3-47.66c0,0,21.77-26,16.88-42,0,0,21.77-26.06,9.61,45.21l-11.19,26.32Zm-52.2-40.92s-9.09-66.46,17.75-79.14c0,0,10.23,16.09-3.67,45,13.9-28.86-14.08,34.19-14.08,34.19m1.66-193.52s6.47-55.52-6.56-63.74c0,0-6.91-47.92,40.66-38.91l58.77-19.94-4.9,100.65s-47.83,4.28-61.47,22.47c13.64-18.19-26.5-.53-26.5-.53"/><path class="cls-2" d="M8186.54,837.86s186.34,145.07,199,169.56l-156.26,91.37s24.13,9.36,55.09,3.41,11.1-6.38,11.1-6.38L8273,1117.33l57.71-22.91s44.77-27.72,32.79,11.72c0,0,22.82-32.62,46.09,12,0,0,28.33,16.09,18-15l36.46,42.67s36.73,36.11,76-49l5.25-37.34,11.45-21.78s-9.62-64.09-70.65-91.9L8326.8,874Z"/><path class="cls-2" d="M7648.18,739.66s11.63-28.34-5.59-46.35c0,0,49.23-34.19,95.49-31,0,0,44.51-23.17,73-13.82l313.22-118.74s61.3-183.72,53.17-217c0,0,15.83-118.66,59.81-113.33,0,0,35.41-8,6.3,114.73,0,0,1.66,123.38-16.45,145.07L8246,501.46s137.29-27.8,152.15-5.42c0,0,8.49,17.75-18,19.41,0,0-.44,22-3,35.16,0,0,39.35,14.07-11.63,26.23,0,0,12.85,22.3-20.29,23.78,0,0-11.28,10.76-50.89,9.88,0,0-121.37,6.21-141.83,38.83,0,0-14.78,272.82-167.72,414.92,0,0-75.64,35.85-165.88,27.28l11.46-19.59s-57.1-5.68-82.29,35.68c0,0-21.68-13.73,47.66-60.69,0,0,24.13,2.71,24.66-23.69,0,0,22.91-36.91,49.23-29.73,0,0,18.19-28.25,37.95-25.63,0,0,16.26-37.07,31.48-30.16,0,0,104-116.74,102.13-136.59l-24.75,23.7s77.92-134.93,60.69-155.13L7895,738.43S7817.74,847,7758.36,841.26c0,0-57.71,20.73-72.31-17l-24-13.72-3.67-30.87,2.62-22Zm551.33-226-24.22,1.75,31.57-133.79s9.53,66.37-6.73,105.64c16.26-39.27-.62,26.4-.62,26.4"/><path class="cls-2" d="M9219,896.87s-86.22,11.37-118.14-42.23l53.43-23.09s37.77-14.6,55.87-36.2c0,0,41.36-78.44,111.23-48.27l11.89,62s-3,30.78-23.08,45.73l-4.9,24.13-25,32.53s52.47,23.17,60.78,45.39c0,0,163.69-27.29,196.13-.18L9564.89,997s-22.65,25.89-27.28,39c0,0-133.35-49.14-184.94-8.39l-21.25,369.71s-11.46,120.93-262.94,236.62c0,0-243.53,155.56-470.71-36.64,0,0,152.06,98,339.28.79,0,0,263-139.74,296.69-269.07,0,0,74.51-183.37,8.66-292.84,0,0-163.69,27.28-241.52,58.67,0,0-48.53,3.32-45.38-42.85,0,0,16.26-37.07,48.62-5.59l182.06-59.9s3.32-52.82,25.26-50.1l2.54-17.58,15.74-10.67Z"/><path class="cls-2" d="M8952.1,300.56s61.29-84.64,81.23-86.39c0,0-26.41-104.15-64.36-80.71l-.35,15.39-15.56,6.29-43.81,89.37s-5.25,35.15-44-3.15l-28.16-22.65s10.75,13.47-3.06,39.61c0,0-18.19,28.25-3.23,46.18,0,0-31.14,113.93,8,136.76,0,0-5.51,50.63,14,64.27,0,0,1.84,220.35-2.89,233.47,0,0-10,54.91-47.56,58.5,0,0-51.6,42.93-34.72-22.82l-100,138.86s-23.78-20.38-24.83,25.88c0,0,3.93,22.12-15.92,23.87l-1,44.07s-16.52,48.1,14,66.37c0,0,14.34,51,49.85,36.38,0,0,35.41-8,40.66-43.2,0,0,23.78-83.16,39.52-98.28,0,0,14.87-74.59,83.51-90.68,0,0,37.34,7.43,49.23-32,0,0,42.76-43.19,49-23.17,0,0,33.49-19.15,60.16-31.74l417-127.58,81.93-18,43.55,23s-17.93,15-13.82,30.52l-42.67,34.37-78.88,82s47.31-47.48,82.46-46.7L9537.18,754l15.91-23.87,8.4,17.84,46.34-3.41,48.71-7.78s46.26-1.14,38.13-34.46c0,0,37.77-14.51,21.07-54.56,0,0-25-66.63-121.9-71,0,0-63.92,5.24-92.78,13.46l-81.84,13.64s-10.84-6.91,11.89-39.43c0,0,19.15-72.32,10.84-92.34,0,0,32.62-184.33,68.47-212.23,0,0,49.06-128.89-50.8-95.83l-49.32,36.37s-67.24,58.06-148.74,54c0,0,33.49,82.28,146.73,40.66l-3,37.43s-97.23,11.1-108.77,37.25l-14.78-31.13s33.84-36.73-7.7-48.71l-35.32,1.49S9210.05,293,9241.8,254l22.56-28.07s3.67-68.29-57.54-87.26c0,0-59.55,104.49-78.61,168l-101.52,11s5.24,59.64,62.08,82.9L9072,461.8l-1.4-35.32L8972,503.69s-29,14.78-24.05-11.54l18.63-45.82L9009,420.79s22.74-37-3.23-57.36l7-13.12,6.91-15.21s13.82-28.42-25.88-27c39.7-1.4-41.71-7.52-41.71-7.52M9214.25,401l22.56-21.6s11,.27,6.12,20c0,0,25.62,40.22,43.2,45L9259,474.66s1.31,41.88-14.42,52.64c0,0-8,61.47,78.17,52.29,0,0,13.12,7-7.08,21.95l-11.55,26.14-95,15.57-2-13.2,13.47-6.39-8.4-20,15.48-4,.7-35.24-21.69-13.73,7.44-39.44,12-41.62,6.91-13.12,15.56-8.39L9238,428ZM9039.71,527.21s1,57.28-59.11,80.28l-49.31,42.93-8.66,90.15,62.17-20.63L9036,696.76l26.85-17,13.64-19.5s3.67-66,23.17-50.19l.53-22-30-42.5-12.6-31.13Zm117.18-120.84s-60.95,67-63.48,82.37l50.28,20.9,9.53-35.07,13,6.91,12.06-48.18L9168.08,400Z"/><path class="cls-2" d="M4488.94,476.21s-130.56-90.32-113.42-148.3c0,0,12.24-74-6.21-79.66,0,0,216.25,52.47,290.93,154.86,0,0-17.14,55.27,25.62,40.31l63.92-14.6s84.47,17.84,78.61,44.16c0,0-8.92,42.24,4.11,53.17,0,0-3.5,39.7-51.33,43.89l-76.95,3.68s-181.62,62.34-228.84,159.4c0,0,173.93-73.1,251-79.39,0,0,106.77-32.1,120.67,58.32,0,0-67,155-304.82,361.84,0,0,138.07-7.52,244.23-13.2,0,0,201.73-11.55,219.48,28.59,0,0,55.79,115.25-31,84.21,0,0-243.1-37.17-307.8,11.8,0,0-210,24.66-239.34,31.92,0,0-170.16,22.82-181.09,35.85,0,0-130.2,15.74-172.09-128.37,0,0,276.15-23.17,321.53-32.7,0,0,214.94-130.55,345.05-384.92,0,0-39-38-313.83,165.53l-107.64,71.87s-82.9,35.33-72.5-78.43c0,0,9.8-84.65,52.29-89.11l229.37-183.19s-318,112.36-331.15,109.48c0,0-47.92,9.53-37.69,28.33,0,0-103.53,5.68-77.12-113.06,0,0,6.82-66.11,46.43-60,0,0,77.3-19.5,91-40.4,0,0-30.17,44.42,20.55,29.56-50.72,14.86,248.08-71.45,248.08-71.45"/><path class="cls-2" d="M2842.59,1338.11s-45.12,61-49.93-186.34c-15.13-126.53,9.88-504.81,5.24-609.13,0,0,11.9-168,64.19-127.4,0,0,30.95,5.59,44.85-15.74,0,0,4.55,45.9,16,5.68s24.66-23.87,43.63-28.94c0,0,6.12-45.74,81.41-39.09,0,0,462.23-100.21,483.91-110.62,0,0,116.13-17,156.26-.08,0,0,59.55-17.93,85.43,44.5l19.85,102.58s39.27,730.58,26.67,840.85c0,0,6.65,91.64,1,105.1,0,0,4.11,75.47-36.64,96.37,0,0-80.34,67.23-109.09-14.31,0,0-8.34-52.24-29.77-60.72,0,0,21.78-10.41-10.23-32.53,0,0,16.09,3.06-2.27-24.22,0,0,106.86,50.19,86.39-12.07l-3.76-431-5.16-177.86L3716.41,472l-14-129.51s11.36-34.8-40.05-19.5c0,0-110.53,3.59-116.22,22.3,0,0,95.32,101.26,97,163.17,0,0,12.76,43.28-67.86,33.93l-86.3,3.93s-56.49-6.21-33.14,48c0,0,33.4,102.92,49.31,113.94,0,0,13.56.17,8.66-32.18,0,0,28.77-109.92,68.29-58.15,0,0,12.42,62.17,47.31,73.54,0,0,23.7,32.7-4.11,83.42l-39.44,107s7.17,56.66,100.21,133.61c0,0,18.1,46.17-25.27,58.94,0,0,15.57,38-.61,37.69,0,0,12.68,48.62-45.91,10l-39.7-46.44-23.17-62.34s-10.23-35.15-29.73,4.89c0,0-71.44,90.42-87.71,90.16l-43.54,28.94,88.93-1.22,121.11,4.63s91.55,1.49,61,57.63c0,0,24,16.52-3.49,48.35,0,0,18.36,30-57,28.68,0,0-271.68-20.54-460.83,16.71l-202.51,29ZM3279.1,863.47s80.19-130.64,126.36-148.74l62.26,143.75s16.88,124.17-295.82,302.21l-221.41,31.39s-48.53,7.26-47.65-51.94c0,0-35.33-307.63,13.72-344.53l7.26,51.24,28-61.47s18.37,27.2,38-23.61c0,0,95.84-92.69,163.08-88.93,0,0-120.84,140.79-161.42,153.64,0,0-84.73,76.69-74.5,109.22l23.61,38,155-94.43s-57.54,61-84.56,68.64c0,0-65.58,58.24-63.4,85.17,0,0-4.11,88.84,49.85,81.58l255.16-117L3426.1,936l22.56-67.07s11.8-59-58.5-44l-8.4,18.71Zm-144-88.58s143.76-56.93,144.11-81.06c0,0,54.3-26.06,49.4-55.79,0,0,13.91-26.76,32.45-10.23,0,0,13.9-26.76-40-24.92,0,0-84.2,44.42-117.08,78.87l-41.19,45.12ZM3206,557.94s70.57-31.22,92.08-30.86c0,0,19.23-24,3.5-51.07l-10.06-40.66s-2.36-24.22-51.07-6.12L2996.75,506s-54.21,18-11.54,45.65l18.36,29.9,40,30.26,73.1-23.09Zm211.53-88.14s-15.31-51.42-12.16-81l29.82-10.32,7.78,19s-16.87,42.85,42.06,62.61l-43.37,15.48Z"/><path class="cls-2" d="M5312.75,874.74s-27.11,28.59-93.83-73.63c0,0-106.59-219.74-50.62-356.33,0,0,8.74-31.65,79.74-6.29,0,0,47.83-6.91,66.9-27.72,0,0,170.16-25.45,220.7-32.27l167.9-36.11s1.74-82.11,10.05-97.85c0,0-17.66-40.14,17.05-55.36,0,0,75.11-43.37,81.85,17.76l-13,111.05s-8.4,18.36,60.68,9.27c0,0,172.62-9.45,193.52,1.57,0,0,73.71,25.45,64.53,83.6,0,0,47.57,9-296.17,208.29,0,0-59.81,67.59,12.24,48,0,0,21.51-15.47,31.66,5.95l39.69,3.58s58.24,1.23,52.65,19.68l-24.4,20.63s-5.6,15.83,18.19,16.36c0,0-13.29,5-11,18.27,0,0-26.5,4.72-24.31,20.73,0,0-98.11,3.14-109.13,21.42,0,0-13.12,116.39-10.84,376.27,0,0-8.92,164.22,6.82,175.15,0,0-4.11,66.19-12.59,87.18,0,0-13.12,238.37-18.72,254.11,0,0-58.93,27.89-73,64.71,0,0-20.55-29.65-9.36-177.86l-2.45-254.55,13.3-487.5s19.76-55.26-58-17.22l-125.39,39.7s-50.28-9.1-22.74-56.14c0,0,1.66-76.86,49.58-86.4l110.18-63.92s27.11-25.88,48.09-17.48c0,0,19.68-52.65,23.09-89.63l10.49-111.15s11.2-26.32-53-6.46c0,0-117.7,47.83-136.23,47.39,0,0-107,48.09-112.72,63.83l-47.83,6.91S5310.91,471.71,5279,479c0,0-45.56,20.2-11.46,36.9,0,0,23.7,5.77,19.07,95.84l25.79,157L5301.21,795,5337,856.73l-3.23,26.4Zm487.32-342,10-95.23s10.76-7.69,8.57-26.32l148.56-4.72L5845.63,509.84Z"/><path class="cls-2" d="M6349,1071.33l21.34,37.77s.52,41.54,16.78,58.5c0,0,3.5,27.72,18.54,30.87,0,0-.35,22.12,17.58,25.27,0,0-7.35,17.75,28.24,32.35,0,0,37,17.49,35.33,29.82,0,0,57.19-23.61,92.34-49.14l78.17-32.88,36.55-28.24s-11.8-26.5,21.08-10.58c0,0,18.62-32.79,29.64-31.22,0,0-33.05-4.81-39,11.63,0,0-24.92,5,1.66-11l41.89-18.45-1.05-16.61,11.11-2.54-9.36-14.08s-5.16-18.1,14.08-9.35l21.07-16.09s-9.44-9.88-16.61,2.36l-15.22-.35-34.71,7.6s-21.25,20.29-22.13.88c0,0-136.15,23.35-186.42,47.13,0,0-18.28,13.38-92.08-26.93l-58.94-26.15Z"/><polygon class="cls-2" points="6797.1 1076.92 6923.89 1031.28 6925.55 1018.86 7010.63 986.16 6805.93 1052.26 6797.1 1076.92"/><path class="cls-2" d="M7174.72,945.45s24.39,22.65,30.34,69.78c0,0,21.25,42,37.68,45.12,0,0,2.19,30.52,24.32,28.16,0,0,37.42,60.34,37.07,74.15,0,0,14-2.45,18.8,25.27,0,0,18.8,28.07,33.93,32.62,0,0-.53,24.83,27,32.35,0,0,15.56,41.89,34.71,53.34,0,0,23.35,8.84,25.8,21.34,0,0,9.53,8.48,10.14-20.55s-.7-31.83-.7-31.83,24.84,4.64,25.1-72.75c0,0,10.23-22-.61-31.83,0,0,15.47-14.86-12.16-16.88l-4.9-29.12-150-97.32-84.73-48.88-35.33-29.82Z"/><path class="cls-2" d="M6097.83,1041.23s16.87-47.31,9.53-76.6c0,0-9.45-50.63,56.22-22.65L6518,856.9s26.58-489.94-18.27-496.24c0,0-52.3-35.59,35.85-65.49,0,0,40.48-30.87,65.23,49.14,0,0,16.79,79.92.61,95.49,0,0,17.66,40.13,2.8,111.4L6603,609.52s-10,214.5,8.39,222.9c0,0,52.64,14.34,38-44.25l2.1-217.38s-2.8-114,12.85-105.72c0,0-2.62-119.45-15.65-127.67,0,0-22.91-45.56-42-22.12,0,0-34-21.95,11.54-44.77,0,0,93.56-37.78,117.17,98l-10.05,219.74-2.19,220,56.22-22.56s18.28-230.32-7.43-268c0,0-3.67-77,18.36-110.88,0,0,18.81-134.84-29.46-109.39,0,0-25.8-32.36,75.11-43.37l126.09-63.57,48.36-33.41s121.63,15.92,75,89.11c0,0,9.54,45.29,133.62-52.73l32.26-20.55,13.12,8.22s72.4-38.13,49.76,30.26c0,0-14.78,68.64-58.33,118,0,0-35.06,153-51.33,168.59,0,0,72.41,81.06,21.86,90.59,0,0,20.29,40.23-32.87,47l1.05,76.95s190.8-1.14,228.75-37.42c0,0,117.43-31.92,80.09,97.15,0,0,10.23,16.17-116.91,13.37l-185.64,1.23s-64.18,25.18-67.68,67.5c0,0-52.64-19.67-28.24-48.35,0,0-84.56-9.8-90.6,22,0,0-1.39,66.19-40.39,30.86,0,0-31.13,89.46-54,41.28,0,0-42.23-6.21-7.25-29.3l-20.38-37.6s-69.17,9.1-72.58,46.17c0,0-16.35,15.57-20.72-24.31l-98.72,27-14.17,42.06s-17.49-48.09-47.22-24.92c0,0-189.14,43.64-412.12,179.35,0,0-62.34,64.88-93.12,16.52l-26.06-24.48Zm915.35-297.05c0,1.41,15.48-140.69,6-152,0,0,7.44-22,24.93-2.28,0,0,74.76,128.9,35,108.7l13.47,21s6.56,14-24,17.49l-34.72,6.12s-20.72-.43-20.72,1m115.95-51.41c2.89-1.92-35.5,3-64.18-103.71,0,0,55.17,3.94,68.64,24.92Zm-105-130.9,3.85-52.56,8.48-10.84-16.61,2.45,21.42-30,56.58,69-48.89,23.87Zm22.74-159.94,11.1-66.19s3.33-26.15,30.69-7.61c0,0,29.12-6.29,44.07,7.87,0,0,64.1-22.12,38.22,23l-16.18,108.86s-3.41,27.64-26.32,2.19c0,0-52.81-55.09-61-59.37l-13.9,2.45ZM6858.93,775.4l2-30.43,18.8,29.47Zm77.48-15.48L6941.48,646c-72.93,62.08-5.07,113.93-5.07,113.93m-23.53-138.33s14-34.19,6.3-47.66c0,0,21.77-26,16.88-42,0,0,21.77-26.06,9.61,45.21l-11.19,26.32Zm-52.2-40.92s-9.09-66.46,17.75-79.14c0,0,10.23,16.09-3.67,45,13.9-28.86-14.08,34.19-14.08,34.19m1.66-193.52s6.47-55.52-6.56-63.74c0,0-6.91-47.92,40.66-38.91l58.77-19.94-4.9,100.65s-47.83,4.28-61.47,22.47c13.64-18.19-26.5-.53-26.5-.53"/><path class="cls-2" d="M8186.54,837.86s186.34,145.07,199,169.56l-156.26,91.37s24.13,9.36,55.09,3.41,11.1-6.38,11.1-6.38L8273,1117.33l57.71-22.91s44.77-27.72,32.79,11.72c0,0,22.82-32.62,46.09,12,0,0,28.33,16.09,18-15l36.46,42.67s36.73,36.11,76-49l5.25-37.34,11.45-21.78s-9.62-64.09-70.65-91.9L8326.8,874Z"/><path class="cls-2" d="M7648.18,739.66s11.63-28.34-5.59-46.35c0,0,49.23-34.19,95.49-31,0,0,44.51-23.17,73-13.82l313.22-118.74s61.3-183.72,53.17-217c0,0,15.83-118.66,59.81-113.33,0,0,35.41-8,6.3,114.73,0,0,1.66,123.38-16.45,145.07L8246,501.46s137.29-27.8,152.15-5.42c0,0,8.49,17.75-18,19.41,0,0-.44,22-3,35.16,0,0,39.35,14.07-11.63,26.23,0,0,12.85,22.3-20.29,23.78,0,0-11.28,10.76-50.89,9.88,0,0-121.37,6.21-141.83,38.83,0,0-14.78,272.82-167.72,414.92,0,0-75.64,35.85-165.88,27.28l11.46-19.59s-57.1-5.68-82.29,35.68c0,0-21.68-13.73,47.66-60.69,0,0,24.13,2.71,24.66-23.69,0,0,22.91-36.91,49.23-29.73,0,0,18.19-28.25,37.95-25.63,0,0,16.26-37.07,31.48-30.16,0,0,104-116.74,102.13-136.59l-24.75,23.7s77.92-134.93,60.69-155.13L7895,738.43S7817.74,847,7758.36,841.26c0,0-57.71,20.73-72.31-17l-24-13.72-3.67-30.87,2.62-22Zm551.33-226-24.22,1.75,31.57-133.79s9.53,66.37-6.73,105.64c16.26-39.27-.62,26.4-.62,26.4"/><path class="cls-2" d="M9219,896.87s-86.22,11.37-118.14-42.23l53.43-23.09s37.77-14.6,55.87-36.2c0,0,41.36-78.44,111.23-48.27l11.89,62s-3,30.78-23.08,45.73l-4.9,24.13-25,32.53s52.47,23.17,60.78,45.39c0,0,163.69-27.29,196.13-.18L9564.89,997s-22.65,25.89-27.28,39c0,0-133.35-49.14-184.94-8.39l-21.25,369.71s-11.46,120.93-262.94,236.62c0,0-243.53,155.56-470.71-36.64,0,0,152.06,98,339.28.79,0,0,263-139.74,296.69-269.07,0,0,74.51-183.37,8.66-292.84,0,0-163.69,27.28-241.52,58.67,0,0-48.53,3.32-45.38-42.85,0,0,16.26-37.07,48.62-5.59l182.06-59.9s3.32-52.82,25.26-50.1l2.54-17.58,15.74-10.67Z"/><path class="cls-2" d="M8952.1,300.56s61.29-84.64,81.23-86.39c0,0-26.41-104.15-64.36-80.71l-.35,15.39-15.56,6.29-43.81,89.37s-5.25,35.15-44-3.15l-28.16-22.65s10.75,13.47-3.06,39.61c0,0-18.19,28.25-3.23,46.18,0,0-31.14,113.93,8,136.76,0,0-5.51,50.63,14,64.27,0,0,1.84,220.35-2.89,233.47,0,0-10,54.91-47.56,58.5,0,0-51.6,42.93-34.72-22.82l-100,138.86s-23.78-20.38-24.83,25.88c0,0,3.93,22.12-15.92,23.87l-1,44.07s-16.52,48.1,14,66.37c0,0,14.34,51,49.85,36.38,0,0,35.41-8,40.66-43.2,0,0,23.78-83.16,39.52-98.28,0,0,14.87-74.59,83.51-90.68,0,0,37.34,7.43,49.23-32,0,0,42.76-43.19,49-23.17,0,0,33.49-19.15,60.16-31.74l417-127.58,81.93-18,43.55,23s-17.93,15-13.82,30.52l-42.67,34.37-78.88,82s47.31-47.48,82.46-46.7L9537.18,754l15.91-23.87,8.4,17.84,46.34-3.41,48.71-7.78s46.26-1.14,38.13-34.46c0,0,37.77-14.51,21.07-54.56,0,0-25-66.63-121.9-71,0,0-63.92,5.24-92.78,13.46l-81.84,13.64s-10.84-6.91,11.89-39.43c0,0,19.15-72.32,10.84-92.34,0,0,32.62-184.33,68.47-212.23,0,0,49.06-128.89-50.8-95.83l-49.32,36.37s-67.24,58.06-148.74,54c0,0,33.49,82.28,146.73,40.66l-3,37.43s-97.23,11.1-108.77,37.25l-14.78-31.13s33.84-36.73-7.7-48.71l-35.32,1.49S9210.05,293,9241.8,254l22.56-28.07s3.67-68.29-57.54-87.26c0,0-59.55,104.49-78.61,168l-101.52,11s5.24,59.64,62.08,82.9L9072,461.8l-1.4-35.32L8972,503.69s-29,14.78-24.05-11.54l18.63-45.82L9009,420.79s22.74-37-3.23-57.36l7-13.12,6.91-15.21s13.82-28.42-25.88-27c39.7-1.4-41.71-7.52-41.71-7.52M9214.25,401l22.56-21.6s11,.27,6.12,20c0,0,25.62,40.22,43.2,45L9259,474.66s1.31,41.88-14.42,52.64c0,0-8,61.47,78.17,52.29,0,0,13.12,7-7.08,21.95l-11.55,26.14-95,15.57-2-13.2,13.47-6.39-8.4-20,15.48-4,.7-35.24-21.69-13.73,7.44-39.44,12-41.62,6.91-13.12,15.56-8.39L9238,428ZM9039.71,527.21s1,57.28-59.11,80.28l-49.31,42.93-8.66,90.15,62.17-20.63L9036,696.76l26.85-17,13.64-19.5s3.67-66,23.17-50.19l.53-22-30-42.5-12.6-31.13Zm117.18-120.84s-60.95,67-63.48,82.37l50.28,20.9,9.53-35.07,13,6.91,12.06-48.18L9168.08,400Z"/><path class="cls-2" d="M4488.94,476.21s-130.56-90.32-113.42-148.3c0,0,12.24-74-6.21-79.66,0,0,216.25,52.47,290.93,154.86,0,0-17.14,55.27,25.62,40.31l63.92-14.6s84.47,17.84,78.61,44.16c0,0-8.92,42.24,4.11,53.17,0,0-3.5,39.7-51.33,43.89l-76.95,3.68s-181.62,62.34-228.84,159.4c0,0,173.93-73.1,251-79.39,0,0,106.77-32.1,120.67,58.32,0,0-67,155-304.82,361.84,0,0,138.07-7.52,244.23-13.2,0,0,201.73-11.55,219.48,28.59,0,0,55.79,115.25-31,84.21,0,0-243.1-37.17-307.8,11.8,0,0-210,24.66-239.34,31.92,0,0-170.16,22.82-181.09,35.85,0,0-130.2,15.74-172.09-128.37,0,0,276.15-23.17,321.53-32.7,0,0,214.94-130.55,345.05-384.92,0,0-39-38-313.83,165.53l-107.64,71.87s-82.9,35.33-72.5-78.43c0,0,9.8-84.65,52.29-89.11l229.37-183.19s-318,112.36-331.15,109.48c0,0-47.92,9.53-37.69,28.33,0,0-103.53,5.68-77.12-113.06,0,0,6.82-66.11,46.43-60,0,0,77.3-19.5,91-40.4,0,0-30.17,44.42,20.55,29.56-50.72,14.86,248.08-71.45,248.08-71.45"/><path class="cls-2" d="M2842.59,1338.11s-45.12,61-49.93-186.34c-15.13-126.53,9.88-504.81,5.24-609.13,0,0,11.9-168,64.19-127.4,0,0,30.95,5.59,44.85-15.74,0,0,4.55,45.9,16,5.68s24.66-23.87,43.63-28.94c0,0,6.12-45.74,81.41-39.09,0,0,462.23-100.21,483.91-110.62,0,0,116.13-17,156.26-.08,0,0,59.55-17.93,85.43,44.5l19.85,102.58s39.27,730.58,26.67,840.85c0,0,6.65,91.64,1,105.1,0,0,4.11,75.47-36.64,96.37,0,0-80.34,67.23-109.09-14.31,0,0-8.34-52.24-29.77-60.72,0,0,21.78-10.41-10.23-32.53,0,0,16.09,3.06-2.27-24.22,0,0,106.86,50.19,86.39-12.07l-3.76-431-5.16-177.86L3716.41,472l-14-129.51s11.36-34.8-40.05-19.5c0,0-110.53,3.59-116.22,22.3,0,0,95.32,101.26,97,163.17,0,0,12.76,43.28-67.86,33.93l-86.3,3.93s-56.49-6.21-33.14,48c0,0,33.4,102.92,49.31,113.94,0,0,13.56.17,8.66-32.18,0,0,28.77-109.92,68.29-58.15,0,0,12.42,62.17,47.31,73.54,0,0,23.7,32.7-4.11,83.42l-39.44,107s7.17,56.66,100.21,133.61c0,0,18.1,46.17-25.27,58.94,0,0,15.57,38-.61,37.69,0,0,12.68,48.62-45.91,10l-39.7-46.44-23.17-62.34s-10.23-35.15-29.73,4.89c0,0-71.44,90.42-87.71,90.16l-43.54,28.94,88.93-1.22,121.11,4.63s91.55,1.49,61,57.63c0,0,24,16.52-3.49,48.35,0,0,18.36,30-57,28.68,0,0-271.68-20.54-460.83,16.71l-202.51,29ZM3279.1,863.47s80.19-130.64,126.36-148.74l62.26,143.75s16.88,124.17-295.82,302.21l-221.41,31.39s-48.53,7.26-47.65-51.94c0,0-35.33-307.63,13.72-344.53l7.26,51.24,28-61.47s18.37,27.2,38-23.61c0,0,95.84-92.69,163.08-88.93,0,0-120.84,140.79-161.42,153.64,0,0-84.73,76.69-74.5,109.22l23.61,38,155-94.43s-57.54,61-84.56,68.64c0,0-65.58,58.24-63.4,85.17,0,0-4.11,88.84,49.85,81.58l255.16-117L3426.1,936l22.56-67.07s11.8-59-58.5-44l-8.4,18.71Zm-144-88.58s143.76-56.93,144.11-81.06c0,0,54.3-26.06,49.4-55.79,0,0,13.91-26.76,32.45-10.23,0,0,13.9-26.76-40-24.92,0,0-84.2,44.42-117.08,78.87l-41.19,45.12ZM3206,557.94s70.57-31.22,92.08-30.86c0,0,19.23-24,3.5-51.07l-10.06-40.66s-2.36-24.22-51.07-6.12L2996.75,506s-54.21,18-11.54,45.65l18.36,29.9,40,30.26,73.1-23.09Zm211.53-88.14s-15.31-51.42-12.16-81l29.82-10.32,7.78,19s-16.87,42.85,42.06,62.61l-43.37,15.48Z"/><path class="cls-1" d="M0,0,1322.86,2286.47,2645.72,0ZM153,85.58H2492.76L1322.86,2111.89Z"/><path class="cls-1" d="M1392.75,1340.82l13.93-50,32.79,40.19,8.63-51.15,36.82,36.55,3.24-51.78,40.43,32.51-2.19-51.83,43.61,28.09-7.6-51.32,46.32,23.39-12.93-50.25,48.5,18.41-18.1-48.61,50.16,13.25-23.08-46.46,51.26,7.93-27.81-43.8,51.82,2.53-32.24-40.64,51.8-2.9-36.31-37.06,51.2-8.3-40-33.05,50.06-13.61-43.21-28.69,48.35-18.77-46-24,46.13-23.71-48.24-19.08,43.4-28.42-50-13.93,40.19-32.79-51.15-8.64,36.55-36.81-51.78-3.24,32.51-40.43-51.84,2.19,28.1-43.62-51.32,7.6,23.39-46.31L1628,617.19l18.42-48.5-48.62,18.1L1611,536.64l-46.46,23.08,7.92-51.27-43.79,27.81,2.53-51.81-40.64,32.24-2.9-51.8-37.06,36.31-8.3-51.21-33,40-13.61-50.06L1367,483.13l-18.77-48.36-24,46-23.72-46.13-19.08,48.24L1253,439.45l-13.93,50-32.8-40.2-8.63,51.16-36.81-36.55-3.24,51.77-40.44-32.5,2.2,51.83-43.61-28.09,7.59,51.31L1037,534.77,1049.92,585l-48.5-18.41,18.1,48.62L969.37,602l23.08,46.46-51.27-7.93L969,684.29l-51.81-2.53,32.24,40.65-51.8,2.9,36.31,37.05-51.21,8.3,40,33.06-50.06,13.61L915.86,846,867.5,864.78l46,24-46.13,23.72,48.24,19.08L872.18,960l50,13.93L882,1006.74l51.15,8.64-36.55,36.81,51.77,3.24-32.5,40.43,51.83-2.19-28.1,43.61,51.33-7.59L967.5,1176l50.24-12.92-18.41,48.5,48.62-18.1-13.25,50.16,46.46-23.09-7.93,51.27L1117,1244l-2.53,51.81,40.65-32.24,2.9,51.8,37-36.32,8.3,51.21,33.06-40,13.6,50.06,28.7-43.22,18.76,48.36,24-46,23.72,46.13,19.08-48.24Zm-50.26-51.37L1321.7,1249l-21.06,40.31-16.45-42.4L1259,1284.8l-11.93-43.88-29,35-7.28-44.89-32.48,31.83-2.54-45.4-35.63,28.25,2.22-45.42L1104,1224.72l7-44.94L1070.25,1200l11.61-44-42.62,15.86,16.15-42.51-44.05,11.32,20.5-40.59-45,6.66,24.62-38.23-45.43,1.92L994.54,1035l-45.39-2.83,32-32.28-44.84-7.57,35.24-28.74-43.81-12.22,38.05-24.9-42.28-16.73L964,889l-40.31-21.06,42.4-16.45-37.89-25.15,43.89-11.93L937,785.4l44.88-7.27-31.83-32.48,45.41-2.55-28.26-35.63,45.42,2.22L988.27,671.3l44.94,7L1013,637.52l44,11.61-15.87-42.61,42.52,16.14-11.33-44,40.6,20.5-6.67-45,38.24,24.63-1.93-45.44L1178,561.81l2.84-45.38,32.27,32,7.57-44.84,28.75,35.24,12.21-43.81,24.91,38.05,16.73-42.29L1324,531.26,1345.09,491l16.44,42.4,25.16-37.89,11.93,43.88,29-35.05,7.27,44.89,32.48-31.83,2.54,45.41,35.64-28.26-2.22,45.42,38.39-24.38-7,44.94,40.73-20.23-11.62,44,42.62-15.87-16.14,42.52,44-11.33-20.49,40.6,45-6.66-24.63,38.23,45.44-1.92-28.49,35.44,45.38,2.84-32,32.28,44.85,7.56-35.24,28.75,43.8,12.21-38,24.91,42.29,16.73-40.44,20.79,40.3,21.06-42.39,16.45L1717.53,954l-43.88,11.93,35,29-44.89,7.28,31.83,32.48-45.4,2.55,28.26,35.63-45.43-2.22,24.38,38.39-44.94-7,20.24,40.72-44-11.6,15.86,42.61-42.51-16.14,11.32,44-40.59-20.5,6.66,45-38.23-24.63,1.92,45.44-35.44-28.5-2.85,45.39-32.27-32-7.56,44.85-28.75-35.24-12.22,43.8-24.9-38Z"/><path class="cls-1" d="M1553.9,923.73H1357.62v-39.1H1288.1v39.1H1011.57a312.37,312.37,0,0,0,13.71,58.44H1288.1v40.13l-69.42,69.42a235.89,235.89,0,0,1-95.11-86.27h-89.26a315.35,315.35,0,0,0,126,144.62,312.1,312.1,0,0,0,67.65,30.66l66.41-66.4,27.37-27.37,1.1-1.1,1.1,1.1,27.37,27.37,66.41,66.4a312.1,312.1,0,0,0,67.65-30.66,315.37,315.37,0,0,0,126-144.62h-89.26a236,236,0,0,1-95.11,86.27l-69.43-69.42V982.17h262.82a311.6,311.6,0,0,0,13.72-58.44H1553.9Z"/><path class="cls-1" d="M1628,797.2h-39.19a276.68,276.68,0,0,0-204-194.06V660.5A220.35,220.35,0,0,1,1477.68,715h-62l31.48,46.3h66.5a219.38,219.38,0,0,1,16.83,35.86h-94.31L1362.35,668l-.17-.07V655.17h0V567h-78.64v88.2h0V668l-.17.07L1209.55,797.2h-94.31a219.43,219.43,0,0,1,16.84-35.86h66.49l31.48-46.3h-62A220.41,220.41,0,0,1,1261,660.5V603.14A276.66,276.66,0,0,0,1057,797.2h-46.44v59.32h161l-31,45.7h67.67l26.8-45.7h175.86l26.81,45.7h67.66l-31-45.7h161V797.2Zm-265.78,0h-86.51l7.87-14.53,39.32-72.56,39.32,72.56,7.87,14.53Z"/><path class="cls-1" d="M797.23,664.94l63.95-9.39L812.52,632.6l7.52-16,79.3,37.41-6.72,14.22-63.84,9.44,48.56,22.91-7.53,16-79.29-37.41Z"/><path class="cls-1" d="M766.42,756.94l16.37-.92,8.72-30.9-13.45-9.46,5-17.71,75.44,55.41-3.76,13.32-93.31,8Zm65.18-3.5L804,733.79l-6.11,21.62Z"/><path class="cls-1" d="M826.9,829.88l-71.67-10.23,2.5-17.46,71.65,10.23,3.33-23.35,15.12,2.16-9.17,64.17-15.1-2.16Z"/><path class="cls-1" d="M751.36,863,839,866.2l-.66,17.63-87.65-3.25Z"/><path class="cls-1" d="M763.23,961.77c-6.64-5.83-10.69-13.27-11.51-23.52s2-18.35,7.63-25.17c8.12-9.82,19.06-10.44,34.16-11.66s26-2.34,35.59,6.07c6.64,5.82,10.7,13.39,11.52,23.63s-2,18.24-7.64,25.06c-8.12,9.81-19.06,10.56-34.16,11.76S772.8,970.17,763.23,961.77ZM821.62,944a14.9,14.9,0,0,0,3.78-11.63,15.23,15.23,0,0,0-5.58-11c-4-3.11-8.07-3.67-24.9-2.32s-20.8,2.55-24.21,6.26A15.13,15.13,0,0,0,767,937a14.78,14.78,0,0,0,5.56,10.88c4,3.13,8.09,3.81,24.91,2.46S818.22,947.68,821.62,944Z"/><path class="cls-1" d="M772.5,1050.13,816,1002.3l-52.2,13.16-4.32-17.09,85.06-21.45,3.84,15.25L805,1040l52.08-13.14,4.31,17.09-85,21.46Z"/><path class="cls-1" d="M807.06,1140.71l12.09-11.1-12.89-29.39-16.41,1.23-7.38-16.84,93.53-5.06,5.55,12.65-67.11,65.35Zm48.2-44.06L821.45,1099l9,20.57Z"/><path class="cls-1" d="M824.5,1174.34l74.24-46.67,9.4,14.92-61.3,38.54,21.82,34.69L855.73,1224Z"/><path class="cls-1" d="M910,1289.13a33.73,33.73,0,0,1-9.9-24.24c.08-12.72,8.19-20.12,19.14-30.58s18.69-18.21,31.41-17.75a33.85,33.85,0,0,1,23.78,11c11.67,12.19,14,28.2,3,43.16L965,1257.76c3.85-6.12,4.61-13.18-1.53-19.58-3.34-3.49-7.3-5.14-11.1-5-5,.08-8.77,2.23-21,13.9s-14.53,15.28-14.82,20.31c-.29,3.78,1.18,7.82,4.51,11.31,6.14,6.41,13.21,6,19.51,2.4L953,1294C937.54,1304.4,921.58,1301.24,910,1289.13Z"/><path class="cls-1" d="M989.84,1357.56l22.14-29.25-24.36-18.46-22.13,29.26-14-10.66,52.89-69.89,14,10.65-21.61,28.57,24.35,18.47,21.62-28.57,14,10.64-52.89,69.91Z"/><path class="cls-1" d="M1057.44,1399.72c-16.43-8.57-23.81-26.17-15.19-42.65l26.72-51,15.62,8.15-26.42,50.51c-4.69,9-2.09,17.11,6.35,21.52s16.73,1.92,21.42-7l26.43-50.51,15.52,8.1-26.73,51.07C1092.54,1404.3,1073.86,1408.3,1057.44,1399.72Z"/><path class="cls-1" d="M1164.77,1442.1l-17.6-62.19-16.46,51.25-16.79-5.4,26.83-83.49,15,4.82,17.63,62.07,16.43-51.12,16.79,5.39-26.83,83.48Z"/><path class="cls-1" d="M1265.73,1452.31c-8.21,6.14-17.14,7.58-26.67,6.2a33.83,33.83,0,0,1-22.72-13c-7.76-10.09-5.93-20.9-3.74-35.87s3.52-25.87,13.83-33.31c7.17-5.19,15.45-7.45,25.49-6,20.72,3,29.34,17.71,29.59,32.67l-17.58-2.56c-.82-8.45-5.3-13.72-14.21-15a14.91,14.91,0,0,0-11.85,3c-3.93,3.17-5.39,7.06-7.82,23.74s-2.16,21,.7,25.11c2.1,3.17,5.75,5.45,10.51,6.14,5.27.77,9.8-.44,13.14-3.07s5-6.48,5.71-11l.47-3.29-16.44-2.4,2.06-14.12,33.77,4.92-1.84,12.66C1276.29,1439.67,1272.93,1446.9,1265.73,1452.31Z"/><path class="cls-1" d="M1380.05,1461.32l-2.67-36.6-30.49,2.22,2.67,36.6-17.58,1.27-6.38-87.45,17.58-1.27,2.62,35.74,30.48-2.22-2.62-35.74,17.59-1.28,6.39,87.45Z"/><path class="cls-1" d="M1451.3,1450.11c-13.35,3.13-24.11,2.75-34.76-3.74l8.58-13.38c6.81,4.08,14.77,4.12,22.93,2.21,10.12-2.38,14.68-7.37,13.08-14.21-.71-3-2.16-5.29-4.42-6.54-2.09-1.16-4.27-1.54-8.49-1.17l-11,1c-7.77.69-13.87-.29-18.69-3.07-5.16-3.1-8.55-8.13-10.25-15.32-3.57-15.21,5.52-28.61,24.54-33.07,12.1-2.83,21.55-2,30.74,3.3l-8.42,13c-6.76-3.85-13.6-3-19.41-1.65-9.13,2.15-12.42,8.09-11,14a8.39,8.39,0,0,0,4,5.51,16,16,0,0,0,8.94,1.45l10.72-1c8.27-.79,13.85.17,18.33,2.66,5.71,3.21,9.28,9,11.06,16.51C1481.7,1433.13,1469.69,1445.81,1451.3,1450.11Z"/><path class="cls-1" d="M1505,1434.18l-29.34-82.66,16.62-5.91,29.33,82.68Z"/><path class="cls-1" d="M1595.63,1394.82l-56.14-32,24.18,48.11-15.74,7.92-39.39-78.39,14-7.05,56.08,31.92-24.13-48,15.75-7.92,39.4,78.39Z"/><path class="cls-1" d="M1674.89,1331.3c-1.55,10.15-6.91,17.42-14.69,23.11a33.8,33.8,0,0,1-25.33,6.65c-12.61-1.76-18.88-10.75-27.83-23s-15.63-20.93-13.49-33.47c1.47-8.72,5.79-16.15,14-22.14,16.89-12.37,33.36-7.93,44,2.58l-14.33,10.48c-6.51-5.46-13.4-6.07-20.67-.74a14.83,14.83,0,0,0-6.34,10.45c-.59,5,1.09,8.8,11.06,22.42s13.15,16.47,18.1,17.43c3.73.78,7.92-.15,11.8-3,4.3-3.15,6.7-7.19,7.24-11.4s-1-8.17-3.64-11.84l-2-2.68-13.4,9.82-8.44-11.53,27.53-20.16,7.57,10.34C1673.56,1314.89,1676.22,1322.39,1674.89,1331.3Z"/><path class="cls-1" d="M1752.45,1270.19c-12.23,13.9-31.11,16.9-45,4.63l-43.23-38.08,11.66-13.25,42.76,37.67c7.57,6.67,16.11,6.09,22.39-1.06s5.87-15.79-1.7-22.46L1696.54,1200l11.56-13.14,43.23,38.07C1765.26,1237.18,1764.69,1256.29,1752.45,1270.19Z"/><path class="cls-1" d="M1819.31,1176.11l-64.58,2.18,45.78,28.27-9.27,15-74.57-46.06,8.26-13.38,64.46-2.24-45.66-28.19,9.26-15,74.58,46Z"/><path class="cls-1" d="M1839.18,1137.51l-79.75-36.37,7.3-16.05,79.76,36.39Z"/><path class="cls-1" d="M1867.56,1065.37l-4.13,12.52-92.56.88,5.72-17.34,59.91.65L1787.93,1027l5.74-17.46Z"/><path class="cls-1" d="M1880.89,1018.52l-86.37-15.12,10.26-58.57,15,2.63-7.22,41.22,20.26,3.54,6.14-35.09,15,2.63-6.14,35.09,21,3.68,7.23-41.22,15,2.64Z"/><path class="cls-1" d="M1894.57,886.51l-35.31,16.89-.28,12.68,35,.75-.39,17.63-87.63-1.88.76-35.4c.39-18.39,12.8-29,27.45-28.72,12.31.27,19.78,8.18,22.66,17L1895,866.09Zm-72.65,12.15-.35,16.61,23.13.5.36-16.61c.17-7.75-4.52-12.93-11.29-13.07S1822.09,890.92,1821.92,898.66Z"/><path class="cls-1" d="M1890.45,818.55c1.79,13.58.35,24.28-7.16,34.22l-12.48-9.87c4.75-6.39,5.56-14.3,4.47-22.61-1.36-10.31-5.87-15.35-12.83-14.43-3,.4-5.49,1.62-7,3.73s-1.94,4.1-2,8.33l0,11c-.08,7.82-1.66,13.78-4.91,18.31-3.59,4.83-8.92,7.71-16.24,8.67-15.51,2.05-27.94-8.35-30.49-27.72-1.63-12.32.12-21.63,6.32-30.26l12.08,9.66c-4.51,6.36-4.34,13.24-3.56,19.16,1.22,9.3,6.83,13.17,12.81,12.39a8.37,8.37,0,0,0,5.87-3.47,15.47,15.47,0,0,0,2.32-8.74l.08-10.77c0-8.32,1.54-13.76,4.46-18,3.77-5.35,9.84-8.33,17.53-9.35C1876.55,786.59,1888,799.81,1890.45,818.55Z"/><path class="cls-1" d="M1879.85,763.37l-85.09,21.09-4.24-17.12,85.09-21.08Z"/><path class="cls-1" d="M1788.85,712.74l68-24.86,6,16.57-68,24.85,8.09,22.16-14.33,5.24-22.23-60.88,14.33-5.24Z"/><path class="cls-1" d="M1791.32,632.39,1823,615.46l8.25,15.42-31.71,16.94-32.83,48.3-9-16.89,23.22-31.52-39,2-9-16.88Z"/><path class="cls-1" d="M1873.67,186.38h-85.22V140.32a11.17,11.17,0,0,0-22.33,0v46.06h-85.23a11,11,0,1,0,0,21.94h85.23l0,43.52c-5.16,28.75-49.87,88.29-88.61,118a10.88,10.88,0,0,0-4.21,7.31,10.76,10.76,0,0,0,2.27,8.09,11.3,11.3,0,0,0,15.67,1.9c32.1-24.59,67.9-67.37,86-102.6,18.12,35.22,53.92,78,86,102.6a11.3,11.3,0,0,0,15.67-1.9,10.87,10.87,0,0,0-1.94-15.4c-38.74-29.69-83.45-89.23-88.58-117.76V208.32h85.22a11,11,0,1,0,0-21.94Z"/><path class="cls-1" d="M2183.73,252h-7.36V151.53A11.6,11.6,0,0,0,2164.79,140h-32.42a11.58,11.58,0,1,0,0,23.16h20.84v9.16h-18.4a12.19,12.19,0,1,0,0,24.37h18.4v15.13h-18.4a12.19,12.19,0,1,0,0,24.38h18.4V252h-25.38a10.88,10.88,0,0,0-.62-2.74,83.61,83.61,0,0,0-19.29-29.34l13.58-12.18a10.38,10.38,0,0,0,.79-14.64,10.07,10.07,0,0,0-4.1-2.76,11,11,0,0,0-3-14l-13.12-10L2114,155.7a10.38,10.38,0,0,0,.79-14.64,10.37,10.37,0,0,0-14.63-.79l-14.85,13.32-16.47-12.51a11,11,0,1,0-13.27,17.48l13.11,9.95-11.87,10.66a10.37,10.37,0,0,0-.8,14.64,10.37,10.37,0,0,0,3.56,2.57,8.62,8.62,0,0,0-.85,1.16,11,11,0,0,0,3.43,15.12c4,2.54,8.66,5.51,13.17,8.65L2051.07,243a10.35,10.35,0,0,0-3.35,8.92h-29V236.15h17.8a12.19,12.19,0,1,0,0-24.38h-17.8V196.64h17.8a12.19,12.19,0,1,0,0-24.37h-17.8v-19h20.84a11.58,11.58,0,1,0,0-23.15h-32.42a11.59,11.59,0,0,0-11.58,11.57V252h-11.21a11,11,0,0,0-11,11v39.55a11,11,0,1,0,21.94,0V273.9h177.42v28.58a11,11,0,1,0,21.94,0V262.93A11,11,0,0,0,2183.73,252ZM2073.81,194.1a11.67,11.67,0,0,0-1.69-.86l13.33-12,16.48,12.5a10.24,10.24,0,0,0,2.46,1.41L2092,206.32C2085.73,201.71,2079.3,197.57,2073.81,194.1Zm17.75,40.45A65.63,65.63,0,0,1,2104.43,252h-32.27Zm29.33,17.36a1.21,1.21,0,0,1,1,.05h-1.16Z"/><path class="cls-1" d="M1245.66,170.17h-63.38v-32a12.19,12.19,0,0,0-24.38,0v32h-63.38a25.79,25.79,0,0,0-25.76,25.76v81.31A25.79,25.79,0,0,0,1094.52,303h63.38v85.2a12.19,12.19,0,0,0,24.38,0V303h63.38a25.79,25.79,0,0,0,25.76-25.76V195.93A25.79,25.79,0,0,0,1245.66,170.17ZM1157.9,276.63h-61.59a1.38,1.38,0,0,1-1.38-1.38v-78a1.39,1.39,0,0,1,1.38-1.39h61.59Zm87.15-1.38a1.38,1.38,0,0,1-1.39,1.38h-61.38V195.88h61.38a1.39,1.39,0,0,1,1.39,1.39Z"/><path class="cls-1" d="M959.43,354h-61l14-19.19a72.81,72.81,0,0,0,9.1-30.27L929.64,192a12.45,12.45,0,0,0,0-1.5h23.09a13.4,13.4,0,0,0,0-26.8H875V135.76a12.19,12.19,0,1,0-24.37,0v27.93H772.83a13.4,13.4,0,0,0,0,26.8H904.09L896,302.66a47.09,47.09,0,0,1-5.83,19.48L869.26,353a9.6,9.6,0,0,0-.47,1H768a14.62,14.62,0,0,0,0,29.24H959.43a14.62,14.62,0,0,0,0-29.24Z"/><path class="cls-1" d="M823.88,340.35a11.45,11.45,0,0,0,1.3-.07,12.3,12.3,0,0,0,8.46-4.49,11.08,11.08,0,0,0,2.45-8.25,792.73,792.73,0,0,0-22.92-120.48c-1.66-6.16-8.31-9.93-14.86-8.38a12.07,12.07,0,0,0-7.7,5.55,11,11,0,0,0-1.2,8.53A770.93,770.93,0,0,1,811.71,330,12,12,0,0,0,823.88,340.35Z"/><path class="cls-1" d="M1569,314.34h-31a11,11,0,0,0,.23-2.2V296.83h27.35a14.53,14.53,0,0,0,14.52-14.52V167.06a14.54,14.54,0,0,0-14.52-14.52H1537.5a25,25,0,0,0-24.23-19h-76.58a25,25,0,0,0-24.24,19h-22.79a18.08,18.08,0,0,0-18.06,18.06V278.77a18.08,18.08,0,0,0,18.06,18.06h22.08v15.31a11,11,0,0,0,.23,2.2h-39.51a12.19,12.19,0,1,0,0,24.37h57.47A345.49,345.49,0,0,1,1376.2,379a11.58,11.58,0,1,0,12,19.82,370.39,370.39,0,0,0,61.08-46.43,11.58,11.58,0,0,0,2.36-13.69h48.92a12.19,12.19,0,0,0,4.47,15.52l51,32.41a12.19,12.19,0,0,0,13.09-20.56l-43-27.37h43a12.19,12.19,0,1,0,0-24.37Zm-30.77-137.42h17.5v35.64h-17.5Zm0,60h17.5v35.53h-17.5Zm-126.47,35.53H1396V236.93h15.77Zm0-59.9H1396V176.92h15.77Zm94.53,101.78v0H1488v0h-54.3V195.15h62.88a9.76,9.76,0,0,0,0-19.51h-62.88V158.45a3,3,0,0,1,3-3h76.58c2.48,0,3,3.23,3,5.93v149a25.06,25.06,0,0,0,.32,4Z"/><path class="cls-1" d="M644.85,133.3h-175a12.2,12.2,0,0,0-12.19,12.19V377.26a12.2,12.2,0,0,0,12.19,12.18h175A12.19,12.19,0,0,0,657,377.26V145.49A12.19,12.19,0,0,0,644.85,133.3Zm-37.72,24.37c-.4,1.86-.84,4.34-1.34,7.11-1.48,8.2-3.5,19.44-5.9,23.37-.08.13-.15.27-.22.41H592.1c-.12-4.08-.23-11.58-.33-18.28-.07-5-.14-9.67-.2-12.61Zm-125.14,0h82.76c.07,2.94.14,7.67.21,12.68.1,7,.21,14.15.32,18.21H482Zm0,207.4V215.36h85.46c1.2,22.39,2,32.32,5.25,56.9,1.44,10.91,6.18,21.41,10.76,31.56.87,1.94,1.74,3.85,2.57,5.74a254.49,254.49,0,0,0-23.79,55.51Zm103.24,0a231,231,0,0,1,13.34-32.54c2.38,3.53,4.92,7,7.58,10.23a251.43,251.43,0,0,0,20.45,22.31Zm47.44-32.49c-2.06-2.34-4-4.57-5.74-6.75A113.36,113.36,0,0,1,614,306.08a270.72,270.72,0,0,1,18.64-24.61Zm0-83.46a312.35,312.35,0,0,0-28.1,32.35c-.61-1.52-1.38-3-2.13-4.51-1.38-2.71-2.81-5.52-3.16-8.19-3.08-23.48-3.83-32.35-5-53.41h38.37Zm0-60.56H617.49c2.36-6.59,4.88-20.49,6.29-28.28.18-1,.33-1.85.47-2.61h8.42Z"/><path class="cls-1" d="M543.91,229.85h-30.8a22.69,22.69,0,0,0-22.66,22.67V282.2a22.69,22.69,0,0,0,22.66,22.66h30.8a22.68,22.68,0,0,0,22.65-22.66V252.52A22.69,22.69,0,0,0,543.91,229.85Zm.23,52.35a.24.24,0,0,1-.23.23h-30.8a.24.24,0,0,1-.23-.23V252.52s.1-.24.23-.24h30.8a.39.39,0,0,1,.23.11Z"/><path class="cls-1" d="M550.45,317.17H499.39a11.22,11.22,0,0,0,0,22.43h51.06a11.22,11.22,0,0,0,0-22.43Z"/><path class="cls-1" d="M1482,211h-14.8a22.83,22.83,0,0,0-22.65,22.67v47.2a22.68,22.68,0,0,0,22.65,22.66H1482a22.36,22.36,0,0,0,6-.9,22.62,22.62,0,0,0,16.66-21.76v-47.2A22.69,22.69,0,0,0,1482,211Zm3,64.46a5.55,5.55,0,0,1-5.56,5.56h-9.63a5.55,5.55,0,0,1-5.56-5.56V238.71a5.85,5.85,0,0,1,5.56-5.56h9.63a5.51,5.51,0,0,1,5.43,4.88,5.43,5.43,0,0,1,.13.68Z"/><path class="cls-1" d="M2180.89,336.41h-72.64l28-30c7.61-7.8,6.1-20.18-10.61-20.18h-80c-6.05,0-12.39-.61-15.15,6.43-2.57,6.57,5.18,14.83,5.18,14.83l26.93,28.9H1984a11,11,0,1,0,0,21.94h97.6v15.21h-44.75a11,11,0,1,0,0,21.94h57.45a11,11,0,0,0,11-11V358.35h75.65a11,11,0,1,0,0-21.94Zm-95.51-4.73-28-29h55.44Z"/><path class="cls-1" d="M1191.17,1564.65h-15.06c-7.27,4.5-15.75,7.44-27.7,9.69V1587h22.85v88.63H1143.4v16.44h72.7v-16.44h-24.93Z"/><path class="cls-1" d="M1271.37,1562.22c-20.6,0-37.91,16.62-37.91,41.9,0,26.65,14.37,40,35.66,40,9.7,0,20.6-5.71,28.05-14.89-1.22,36.36-14.54,48.82-30,48.82a28.37,28.37,0,0,1-20.94-9.52l-10.74,12.29c7.45,7.62,17.83,13.5,32.54,13.5,24.59,0,47.43-20.08,47.43-70.28C1315.51,1582,1295.78,1562.22,1271.37,1562.22Zm1.22,67.51c-13.33,0-20.6-9.34-20.6-25.61,0-16.62,8.65-26.49,19.56-26.49,13.84,0,23.37,11.42,25.27,36.53C1289.2,1625.24,1280.38,1629.73,1272.59,1629.73Z"/><path class="cls-1" d="M1380,1564.65H1365c-7.27,4.5-15.75,7.44-27.7,9.69V1587h22.85v88.63h-27.87v16.44h72.7v-16.44H1380Z"/><path class="cls-1" d="M1458.19,1562.22c-20.6,0-37.91,16.62-37.91,41.9,0,26.65,14.37,40,35.65,40,9.7,0,20.61-5.71,28-14.89-1.21,36.36-14.54,48.82-30,48.82a28.41,28.41,0,0,1-20.94-9.52l-10.74,12.29c7.45,7.62,17.83,13.5,32.55,13.5,24.58,0,47.43-20.08,47.43-70.28C1502.33,1582,1482.6,1562.22,1458.19,1562.22Zm1.21,67.51c-13.33,0-20.6-9.34-20.6-25.61,0-16.62,8.65-26.49,19.56-26.49,13.85,0,23.37,11.42,25.28,36.53C1476,1625.24,1467.19,1629.73,1459.4,1629.73Z"/></g></g></svg>